<?xml version="1.0" encoding="UTF-8" standalone="no"?>
<!-- Created with Inkscape (http://www.inkscape.org/) -->

<svg
   width="649.4317mm"
   height="649.4317mm"
   viewBox="0 0 649.4317 649.4317"
   version="1.1"
   id="svg1"
   inkscape:version="1.4.3 (0d15f75, 2025-12-25)"
   sodipodi:docname="arena-tremeliques.svg"
   xmlns:inkscape="http://www.inkscape.org/namespaces/inkscape"
   xmlns:sodipodi="http://sodipodi.sourceforge.net/DTD/sodipodi-0.dtd"
   xmlns="http://www.w3.org/2000/svg"
   xmlns:svg="http://www.w3.org/2000/svg">
  <sodipodi:namedview
     id="namedview1"
     pagecolor="#ffffff"
     bordercolor="#000000"
     borderopacity="0.25"
     inkscape:showpageshadow="2"
     inkscape:pageopacity="0.0"
     inkscape:pagecheckerboard="0"
     inkscape:deskcolor="#d1d1d1"
     inkscape:document-units="mm"
     inkscape:zoom="0.32271149"
     inkscape:cx="150.28904"
     inkscape:cy="370.2998"
     inkscape:window-width="2736"
     inkscape:window-height="1730"
     inkscape:window-x="-11"
     inkscape:window-y="-11"
     inkscape:window-maximized="1"
     inkscape:current-layer="layer1">
    <inkscape:page
       x="0"
       y="0"
       width="649.4317"
       height="649.4317"
       id="page2"
       margin="0"
       bleed="0" />
  </sodipodi:namedview>
  <defs
     id="defs1" />
  <g
     inkscape:label="Camada 1"
     inkscape:groupmode="layer"
     id="layer1"
     transform="translate(219.71586,176.21586)">
    <g
       id="g63"
       transform="translate(-3.5e-6,353.04935)">
      <g
         id="g62"
         transform="translate(-181.43135,-21.206294)">
        <path
           d="m 315.81948,-186.11939 11.98842,-0.37155 v -15.29881 h -11.98842 z"
           style="font-weight:900;font-size:50.8px;font-family:Montserrat;-inkscape-font-specification:'Montserrat Heavy';stroke-width:0.265"
           id="path60" />
        <path
           d="m 284.47566,-185.14839 11.98893,-0.37155 v -16.26981 h -11.98893 z"
           style="font-weight:900;font-size:50.8px;font-family:Montserrat;-inkscape-font-specification:'Montserrat Heavy';stroke-width:0.265"
           id="path58" />
        <path
           id="path56"
           style="font-weight:900;font-size:50.8px;font-family:Montserrat;-inkscape-font-specification:'Montserrat Heavy';stroke-width:0.265"
           d="m 250.28705,-201.78975 v 17.70124 l 10.97297,-0.34003 0.81287,-0.0253 15.03681,-0.46612 v -3.66179 h -15.03681 v -4.16564 h 17.11937 v -9.04234 z" />
        <path
           id="path50"
           style="font-weight:900;font-size:50.8px;font-family:Montserrat;-inkscape-font-specification:'Montserrat Heavy';stroke-width:0.265"
           d="m 201.82386,-201.78975 v 19.20296 l 10.29187,-0.31884 0.63046,-0.0196 10.29549,-0.31884 -11.36261,-18.54564 z m 32.71531,0 -11.0293,18.53117 9.972,-0.30903 0.68265,-0.0212 1.03508,-1.74202 h 5.1e-4 l -1.03508,1.74202 10.28103,-0.31885 -0.0517,-17.88211 z" />
        <path
           id="path39"
           style="font-weight:900;font-size:50.8px;font-family:Montserrat;-inkscape-font-specification:'Montserrat Heavy';stroke-width:0.265"
           d="m 167.63576,-201.78975 v 20.26285 l 10.97246,-0.34004 0.81287,-0.0253 15.03681,-0.46612 v -6.22339 h -15.03681 v -4.16564 h 17.11988 v -9.04234 z" />
        <path
           id="path34"
           style="font-weight:900;font-size:50.8px;font-family:Montserrat;-inkscape-font-specification:'Montserrat Heavy';stroke-width:0.265"
           d="m 129.78949,-201.78975 v 21.43538 l 10.13324,-0.31367 1.8557,-0.0579 19.39416,-0.601 c 1.29446,-1.9855 1.942,-4.33605 1.942,-7.05176 0,-4.13174 -1.42264,-7.40004 -4.26744,-9.80457 -2.8448,-2.40454 -6.99322,-3.6065 -12.44575,-3.6065 z m 11.98894,9.24543 h 4.36872 c 1.65947,0 2.87873,0.37269 3.65766,1.11776 0.8128,0.74507 1.21905,1.76094 1.21905,3.04788 0,1.28693 -0.40625,2.30281 -1.21905,3.04787 -0.77893,0.74507 -1.99819,1.11776 -3.65766,1.11776 h -4.36872 z" />
        <path
           d="m 104.28821,-179.56372 11.98841,-0.37155 v -12.55789 h 10.41435 v -9.29659 H 93.873857 v 9.29659 h 10.414353 z"
           style="font-weight:900;font-size:50.8px;font-family:Montserrat;-inkscape-font-specification:'Montserrat Heavy';stroke-width:0.265"
           id="path22" />
        <path
           d="m 449.02169,-190.24782 11.96619,-0.37104 c -0.0897,-0.18655 -0.13436,-0.38817 -0.13436,-0.60461 0,-0.4064 0.13525,-0.77909 0.40618,-1.11776 0.3048,-0.33867 0.79596,-0.60915 1.4733,-0.81235 0.67733,-0.2032 1.59151,-0.3049 2.74298,-0.3049 1.55787,0 3.14982,0.22016 4.77542,0.66043 1.50968,0.40053 3.06125,0.98331 4.65501,1.74821 l 0.58033,-0.0181 3.50211,-8.43566 c -1.86267,-1.04987 -3.96256,-1.82881 -6.29936,-2.33681 -2.3368,-0.508 -4.70717,-0.76223 -7.11171,-0.76223 -3.6576,0 -6.72252,0.54201 -9.19478,1.62574 -2.4384,1.08373 -4.28407,2.53993 -5.53713,4.36873 -1.2192,1.79493 -1.82883,3.79313 -1.82883,5.99446 0,0.12335 0.002,0.2451 0.005,0.36587 z"
           style="font-weight:900;font-size:50.8px;font-family:Montserrat;-inkscape-font-specification:'Montserrat Heavy';stroke-width:0.265"
           id="path18" />
        <path
           d="m 416.50481,-189.24013 11.78584,-0.36535 v -3.14193 h 17.11937 v -9.04234 h -28.90521 z"
           style="font-weight:900;font-size:50.8px;font-family:Montserrat;-inkscape-font-specification:'Montserrat Heavy';stroke-width:0.265"
           id="path14" />
        <path
           d="m 399.233,-188.70476 11.78532,-0.36535 v -12.71964 H 399.233 Z"
           style="font-weight:900;font-size:50.8px;font-family:Montserrat;-inkscape-font-specification:'Montserrat Heavy';stroke-width:0.265"
           id="path13" />
        <path
           d="m 376.37289,-187.99628 11.98893,-0.37155 v -13.42192 h -11.98893 z"
           style="font-weight:900;font-size:50.8px;font-family:Montserrat;-inkscape-font-specification:'Montserrat Heavy';stroke-width:0.265"
           id="path10" />
        <path
           d="m 352.2431,-202.60262 c -2.87867,0 -5.55412,0.45709 -8.02638,1.37149 -2.4384,0.9144 -4.55507,2.21857 -6.35,3.91191 -1.79494,1.65946 -3.2008,3.62359 -4.2168,5.89266 -0.65586,1.49265 -1.09263,3.09097 -1.31052,4.79506 l 12.30778,-0.38137 c 0.0676,-0.24187 0.14434,-0.47706 0.22996,-0.70539 0.4064,-1.1176 0.96518,-2.04908 1.67638,-2.79414 0.74507,-0.77894 1.59163,-1.37127 2.5399,-1.77767 0.98213,-0.4064 2.03208,-0.60978 3.14968,-0.60978 1.1176,0 2.15025,0.20338 3.09852,0.60978 0.98213,0.4064 1.82869,0.99873 2.53989,1.77767 0.74507,0.74506 1.32115,1.67654 1.72755,2.79414 0.0296,0.0788 0.0578,0.15829 0.0853,0.23875 l 12.24112,-0.37931 c -0.25398,-1.24979 -0.6372,-2.43888 -1.15032,-3.56774 -0.98213,-2.26907 -2.3707,-4.2332 -4.16564,-5.89266 -1.79493,-1.69334 -3.9116,-2.99751 -6.35,-3.91191 -2.4384,-0.9144 -5.11385,-1.37149 -8.02638,-1.37149 z"
           style="font-weight:900;font-size:50.8px;font-family:Montserrat;-inkscape-font-specification:'Montserrat Heavy';stroke-width:0.265"
           id="path3" />
        <path
           d="m 223.04168,-183.24411 0.23306,0.38034 0.23513,-0.39481 z"
           style="stroke-width:0.285247"
           id="path46" />
        <path
           d="m 475.48674,-191.06792 -0.57981,0.0181 c 0.15799,0.0758 0.31661,0.15366 0.47542,0.23306 z"
           style="stroke-width:0.285247"
           id="path21" />
        <g
           id="g61"
           transform="translate(-3.1009908,-1.0719018)">
          <path
             d="m 315.81948,-186.11939 v 19.88974 h 11.98842 v -20.26129 z"
             style="stroke-width:0.285247"
             id="path61" />
          <path
             d="m 284.47566,-185.14839 v 18.91874 h 28.0417 v -9.29659 h -16.05277 v -9.9937 z"
             style="stroke-width:0.285247"
             id="path59" />
          <path
             id="path57"
             style="stroke-width:0.285247"
             d="m 277.1097,-184.91998 -15.03681,0.46612 -0.81287,0.0253 -10.97297,0.34003 v 17.85886 h 29.56564 v -9.04234 h -17.7798 v -4.67362 h 15.03681 z" />
          <path
             id="path51"
             style="stroke-width:0.285247"
             d="m 244.44554,-183.90764 -10.28102,0.31885 -0.68265,0.0212 -9.972,0.30903 -0.23513,0.39481 -0.23306,-0.38034 -10.29549,0.31884 -0.63046,0.0196 -10.29187,0.31884 v 16.35714 h 10.92233 v -15.65847 l 7.72149,12.45815 h 5.2834 l 7.73699,-13.02039 0.0858,16.22071 h 10.92233 z" />
          <path
             id="path40"
             style="stroke-width:0.285247"
             d="m 194.4579,-182.35838 -15.03681,0.46612 -0.81287,0.0253 -10.97246,0.34004 v 15.29725 h 29.56564 v -9.04234 h -17.78031 v -4.67362 h 15.03681 z" />
          <path
             id="path32"
             style="stroke-width:0.285247"
             d="m 161.17259,-181.32692 -19.39416,0.601 -1.8557,0.0579 -10.13324,0.31367 v 14.12472 h 11.98894 v -8.94105 h 3.26543 l 6.03116,8.94105 h 12.80128 l -7.46776,-10.94403 c 1.99895,-1.01725 3.57409,-2.38149 4.72478,-4.09278 0.0132,-0.02 0.0262,-0.0404 0.0393,-0.0605 z" />
          <path
             d="m 104.28821,-179.56372 v 13.33407 h 11.98841 v -13.70562 z"
             style="stroke-width:0.285247"
             id="path23" />
          <path
             d="m 449.02169,-190.24782 c 0.0433,1.73612 0.397,3.2058 1.06195,4.40903 0.7112,1.25307 1.64268,2.26946 2.79414,3.0484 1.18534,0.77893 2.47222,1.40534 3.86075,1.87947 1.4224,0.47413 2.82775,0.8636 4.21628,1.1684 1.38853,0.27094 2.65864,0.54194 3.8101,0.81287 1.18534,0.23707 2.13359,0.54163 2.84479,0.91416 0.7112,0.37253 1.0666,0.88047 1.0666,1.52394 0,0.4064 -0.15202,0.76232 -0.45682,1.06712 -0.3048,0.27093 -0.79596,0.49109 -1.47329,0.66042 -0.64347,0.13547 -1.54088,0.20309 -2.69234,0.20309 -1.96427,0 -3.99654,-0.28778 -6.09627,-0.86351 -2.06587,-0.6096 -3.94509,-1.40584 -5.63842,-2.38797 l -3.86126,8.73797 c 1.79493,1.08373 4.08091,1.96384 6.85798,2.64118 2.77706,0.67733 5.6559,1.01647 8.63616,1.01647 3.69147,0 6.75639,-0.542 9.19479,-1.62574 2.4384,-1.1176 4.26729,-2.57379 5.48649,-4.36872 1.25306,-1.8288 1.87947,-3.827 1.87947,-5.99447 0,-1.86267 -0.3554,-3.42055 -1.0666,-4.67362 -0.7112,-1.25306 -1.65946,-2.26894 -2.84479,-3.04787 -1.15147,-0.77893 -2.42157,-1.40586 -3.8101,-1.87999 -1.38854,-0.47413 -2.79388,-0.84631 -4.21628,-1.11724 -1.38854,-0.27094 -2.67542,-0.52517 -3.86075,-0.76223 -1.15147,-0.23707 -2.08294,-0.52485 -2.79414,-0.86351 -0.4585,-0.24017 -0.76933,-0.52948 -0.93225,-0.86817 0,0 0,-5.2e-4 0,-5.2e-4 z"
             style="stroke-width:0.285247"
             id="path19" />
          <path
             id="path17"
             style="stroke-width:0.285247"
             d="m 428.29065,-189.60548 -11.78584,0.36535 v 23.01048 h 29.56564 v -9.04234 h -17.7798 v -4.67362 h 15.03681 v -8.63616 h -15.03681 z" />
          <path
             d="m 376.37289,-187.99628 v 5.76451 c 0,5.31707 1.52382,9.44871 4.57182,12.39511 3.048,2.9464 7.29862,4.41988 12.75116,4.41988 5.45253,0 9.70264,-1.47348 12.75064,-4.41988 3.048,-2.9464 4.57181,-7.07804 4.57181,-12.39511 v -6.83834 l -11.78532,0.36535 v 6.11746 c 0,2.70933 -0.49117,4.63939 -1.4733,5.79086 -0.94827,1.1176 -2.26921,1.67638 -3.96255,1.67638 -1.65946,0 -2.9799,-0.55878 -3.96203,-1.67638 -0.98213,-1.15147 -1.4733,-3.08153 -1.4733,-5.79086 v -5.78053 z"
             style="stroke-width:0.285247"
             id="path11" />
          <path
             id="path6"
             style="stroke-width:0.285247"
             d="m 371.93544,-187.85882 -12.24112,0.37931 c 0.34942,1.02545 0.524,2.18204 0.524,3.46955 0,1.38854 -0.20286,2.64186 -0.60926,3.75946 -0.4064,1.08374 -0.98248,2.01521 -1.72755,2.79415 -0.7112,0.74506 -1.55776,1.32062 -2.53989,1.72702 -0.94827,0.4064 -1.98092,0.60927 -3.09852,0.60927 -1.1176,0 -2.16755,-0.20287 -3.14968,-0.60927 -0.94827,-0.4064 -1.79483,-0.98196 -2.5399,-1.72702 -0.7112,-0.77894 -1.26998,-1.71041 -1.67638,-2.79415 -0.4064,-1.1176 -0.60978,-2.37092 -0.60978,-3.75946 0,-1.09598 0.12663,-2.09682 0.37982,-3.00291 l -12.30778,0.38137 c -0.10838,0.84773 -0.16226,1.72149 -0.16226,2.62154 0,2.67547 0.49065,5.14805 1.47278,7.41712 1.016,2.26907 2.42186,4.24997 4.2168,5.94331 1.79493,1.65946 3.9116,2.94634 6.35,3.86074 0.99998,0.36986 2.03307,0.66496 3.09955,0.88522 -0.41375,-0.42869 -0.83722,-0.87581 -1.27073,-1.34204 l 12.39511,-3.04839 c 0.8128,1.25307 1.50683,2.21862 2.08256,2.89595 0.11364,0.13369 0.22668,0.25938 0.339,0.37724 2.19019,-0.89553 4.10942,-2.10523 5.75727,-3.62872 1.79494,-1.69334 3.18351,-3.67424 4.16564,-5.94331 1.016,-2.26907 1.52394,-4.74165 1.52394,-7.41712 0,-1.34102 -0.12472,-2.624 -0.37362,-3.84886 z m -11.07323,20.83801 c -0.19548,0.0799 -0.39293,0.1571 -0.59273,0.23202 -2.4384,0.9144 -5.11385,1.37201 -8.02638,1.37201 -1.7143,0 -3.35666,-0.1625 -4.92683,-0.48679 1.29939,1.3463 2.50143,2.50739 3.60598,3.48351 1.45627,1.3208 2.84484,2.35397 4.16564,3.09904 1.35466,0.74506 2.74323,1.26978 4.16563,1.57458 1.4224,0.33866 2.96299,0.50798 4.62246,0.50798 4.3688,0 7.82319,-1.50704 10.36319,-4.52118 l -5.18159,-6.09575 c -1.524,1.524 -3.16628,2.28617 -4.92735,2.28617 -0.7112,0 -1.3549,-0.13576 -1.93063,-0.4067 -0.43492,-0.21745 -0.88066,-0.56563 -1.33739,-1.04489 z" />
        </g>
      </g>
      <path
         style="font-weight:900;font-size:50.8px;font-family:Montserrat;-inkscape-font-specification:'Montserrat Heavy';stroke-width:0.141163"
         d="m 46.653195,-233.74041 9.222166,-17.00832 h 6.991969 l 9.222167,17.00832 h -7.353623 l -6.811143,-14.28699 h 2.772678 l -6.811143,14.28699 z m 5.48508,-2.9643 1.808267,-4.1306 h 9.704371 l 1.808268,4.1306 z m 21.096452,2.9643 v -17.00832 h 9.85506 q 4.852187,0 7.383758,1.72513 2.531579,1.72513 2.531579,4.68944 0,1.9681 -1.175379,3.40166 -1.175371,1.40926 -3.345291,2.16249 -2.139788,0.75322 -5.093289,0.75322 h -6.208386 l 3.164469,-2.35686 v 6.63324 z m 12.62774,0 -5.183703,-6.19589 h 7.534451 l 5.24398,6.19589 z m -5.515218,-6.00151 -3.164469,-2.59984 h 5.756318 q 1.476749,0 2.169918,-0.53455 0.72331,-0.53455 0.72331,-1.45785 0,-0.92331 -0.72331,-1.45786 -0.693169,-0.53455 -2.169918,-0.53455 H 77.18278 l 3.164469,-2.59984 z m 15.340165,6.00151 v -17.00832 h 17.148406 v 4.32497 h -10.15644 v 8.35838 h 10.54823 v 4.32497 z m 6.509766,-6.56035 v -4.1306 h 9.40299 v 4.1306 z m 13.77298,6.56035 v -17.00832 h 5.84674 l 10.72905,10.35078 h -2.7124 v -10.35078 h 6.93169 v 17.00832 h -5.84673 l -10.72906,-10.35078 h 2.71241 v 10.35078 z m 21.94034,0 9.22216,-17.00832 h 6.99197 l 9.22217,17.00832 h -7.35362 l -6.81115,-14.28699 h 2.77268 l -6.81114,14.28699 z m 5.48508,-2.9643 1.80826,-4.1306 h 9.70438 l 1.80826,4.1306 z"
         id="text61"
         aria-label="ARENA" />
    </g>
    <path
       sodipodi:type="star"
       style="fill:none;stroke:#000000;stroke-width:0.264999;stroke-opacity:1"
       id="path63"
       inkscape:flatsided="true"
       sodipodi:sides="8"
       sodipodi:cx="-140.19876"
       sodipodi:cy="-573.09314"
       sodipodi:r1="324.57245"
       sodipodi:r2="299.86584"
       sodipodi:arg1="0.78539816"
       sodipodi:arg2="1.1780972"
       inkscape:rounded="0"
       inkscape:randomized="0"
       d="m 89.308619,-343.58576 -229.507379,95.06507 -229.50738,-95.06507 -95.06507,-229.50738 95.06507,-229.50738 229.50738,-95.06507 229.507378,95.06507 95.065072,229.50738 z"
       transform="translate(245.19876,721.59314)" />
    <path
       style="baseline-shift:baseline;display:inline;overflow:visible;opacity:1;vector-effect:none;enable-background:accumulate;stop-color:#000000;stop-opacity:1"
       d="m -140.19922,-899.44531 -230.76562,95.58594 -95.58594,230.76562 95.58594,230.76563 230.76562,95.58593 230.765626,-95.58593 95.585934,-230.76563 -95.585934,-230.76562 z m 0,3.55859 228.250001,94.54492 94.542969,228.24805 -94.544922,228.25195 -228.248048,94.54102 -228.24805,-94.54297 -94.54492,-228.25 94.54492,-228.24805 z"
       id="path63-6"
       transform="matrix(0.92047692,0,0,0.92047692,234.04972,676.01901)" />
    <g
       id="g64"
       transform="translate(-27.753369,524.4741)"
       style="fill:none;stroke:#000000;stroke-width:1.9;stroke-dasharray:none;stroke-opacity:1">
      <path
         style="baseline-shift:baseline;display:inline;overflow:visible;opacity:1;vector-effect:none;fill:#000000;stroke:none;enable-background:accumulate;stop-color:#000000;stop-opacity:1"
         d="m -38.728516,-563.80469 13.066407,47.21485 5.052734,-10.00586 22.3515625,15.80273 -13.0664065,-47.2168 -5.052734,10.00586 z m 3.251954,4.625 19.802734,14 3.830078,-7.58398 10.3339844,37.34375 -19.8027344,-14 -3.832031,7.58594 z"
         id="path64" />
      <path
         style="baseline-shift:baseline;display:inline;overflow:visible;opacity:1;vector-effect:none;fill:#000000;stroke:none;enable-background:accumulate;stop-color:#000000;stop-opacity:1"
         d="m 250.52734,-252.13086 13.06446,47.2168 5.05468,-10.00586 22.35157,15.80078 -13.06641,-47.21484 -5.05273,10.00586 z m 3.25196,4.62695 19.80273,14 3.83008,-7.58593 10.33398,37.3457 -19.80273,-14 -3.83203,7.58398 z"
         id="path64-2" />
      <path
         style="baseline-shift:baseline;display:inline;overflow:visible;opacity:1;vector-effect:none;fill:#000000;stroke:none;enable-background:accumulate;stop-color:#000000;stop-opacity:1"
         d="m 304.23633,-565.18164 -22.35156,15.80078 -5.05469,-10.00586 -13.06641,47.21485 22.35352,-15.80274 5.05273,10.00781 z m -3.25196,4.625 -10.33398,37.34375 -3.83008,-7.58398 -19.80664,14.00195 10.33594,-37.34766 3.83203,7.58594 z"
         id="path64-1" />
      <path
         style="baseline-shift:baseline;display:inline;overflow:visible;opacity:1;vector-effect:none;fill:#000000;stroke:none;enable-background:accumulate;stop-color:#000000;stop-opacity:1"
         d="m 1.7421875,-239.77734 -22.3515625,15.80273 -5.052734,-10.00586 -13.066407,47.21485 22.351563,-15.80079 5.052734,10.00586 z m -3.2519531,4.62695 -10.3339844,37.34375 -3.830078,-7.58398 -19.802734,14 10.333984,-37.34571 3.830078,7.58594 z"
         id="path64-1-2" />
    </g>
  </g>
</svg>
