  0
SECTION
  2
HEADER
  9
$ACADVER
  1
AC1014
  9
$HANDSEED
  5
FFFF
  9
$INSUNITS
 70
     4
  9
$MEASUREMENT
 70
     1
  0
ENDSEC
  0
SECTION
  2
TABLES
  0
TABLE
  2
VPORT
  5
8
330
0
100
AcDbSymbolTable
 70
     4
  0
VPORT
  5
2E
330
8
100
AcDbSymbolTableRecord
100
AcDbViewportTableRecord
  2
*ACTIVE
 70
     0
 10
0.0
 20
0.0
 11
1.0
 21
1.0
 12
210.0
 22
148.5
 13
0.0
 23
0.0
 14
10.0
 24
10.0
 15
10.0
 25
10.0
 16
0.0
 26
0.0
 36
1.0
 17
0.0
 27
0.0
 37
0.0
 40
341.0
 41
1.24
 42
50.0
 43
0.0
 44
0.0
 50
0.0
 51
0.0
 71
     0
 72
   100
 73
     1
 74
     3
 75
     0
 76
     0
 77
     0
 78
     0
  0
ENDTAB
  0
TABLE
  2
LTYPE
  5
5
330
0
100
AcDbSymbolTable
 70
     1
  0
LTYPE
  5
14
330
5
100
AcDbSymbolTableRecord
100
AcDbLinetypeTableRecord
  2
BYBLOCK
 70
     0
  3

 72
    65
 73
     0
 40
0.0
  0
LTYPE
  5
15
330
5
100
AcDbSymbolTableRecord
100
AcDbLinetypeTableRecord
  2
BYLAYER
 70
     0
  3

 72
    65
 73
     0
 40
0.0
  0
LTYPE
  5
16
330
5
100
AcDbSymbolTableRecord
100
AcDbLinetypeTableRecord
  2
CONTINUOUS
 70
     0
  3
Solid line
 72
    65
 73
     0
 40
0.0
  0
ENDTAB
  0
TABLE
  2
LAYER
  5
2
100
AcDbSymbolTable
 70
2
  0
LAYER
  5
50
100
AcDbSymbolTableRecord
100
AcDbLayerTableRecord
  2
0
 70
0
  6
CONTINUOUS
  0
LAYER
  5
51
100
AcDbSymbolTableRecord
100
AcDbLayerTableRecord
  2
Camada_1
 70
0
  6
CONTINUOUS
  0
ENDTAB
  0
TABLE
  2
STYLE
  5
3
330
0
100
AcDbSymbolTable
 70
     1
  0
STYLE
  5
11
330
3
100
AcDbSymbolTableRecord
100
AcDbTextStyleTableRecord
  2
STANDARD
 70
     0
 40
0.0
 41
1.0
 50
0.0
 71
     0
 42
2.5
  3
txt
  4

  0
ENDTAB
  0
TABLE
  2
VIEW
  5
6
330
0
100
AcDbSymbolTable
 70
     0
  0
ENDTAB
  0
TABLE
  2
UCS
  5
7
330
0
100
AcDbSymbolTable
 70
     0
  0
ENDTAB
  0
TABLE
  2
APPID
  5
9
330
0
100
AcDbSymbolTable
 70
     2
  0
APPID
  5
12
330
9
100
AcDbSymbolTableRecord
100
AcDbRegAppTableRecord
  2
ACAD
 70
     0
  0
ENDTAB
  0
TABLE
  2
DIMSTYLE
  5
A
330
0
100
AcDbSymbolTable
 70
     1
  0
DIMSTYLE
105
27
330
A
100
AcDbSymbolTableRecord
100
AcDbDimStyleTableRecord
  2
ISO-25
 70
     0
  3

  4

  5

  6

  7

 40
1.0
 41
2.5
 42
0.625
 43
3.75
 44
1.25
 45
0.0
 46
0.0
 47
0.0
 48
0.0
140
2.5
141
2.5
142
0.0
143
0.03937007874016
144
1.0
145
0.0
146
1.0
147
0.625
 71
     0
 72
     0
 73
     0
 74
     0
 75
     0
 76
     0
 77
     1
 78
     8
170
     0
171
     3
172
     1
173
     0
174
     0
175
     0
176
     0
177
     0
178
     0
270
     2
271
     2
272
     2
273
     2
274
     3
340
11
275
     0
280
     0
281
     0
282
     0
283
     0
284
     8
285
     0
286
     0
287
     3
288
     0
  0
ENDTAB
  0
TABLE
  2
BLOCK_RECORD
  5
1
330
0
100
AcDbSymbolTable
 70
     1
  0
BLOCK_RECORD
  5
1F
330
1
100
AcDbSymbolTableRecord
100
AcDbBlockTableRecord
  2
*MODEL_SPACE
  0
BLOCK_RECORD
  5
1B
330
1
100
AcDbSymbolTableRecord
100
AcDbBlockTableRecord
  2
*PAPER_SPACE
  0
ENDTAB
  0
ENDSEC
  0
SECTION
  2
BLOCKS
  0
BLOCK
  5
20
330
1F
100
AcDbEntity
  8
0
100
AcDbBlockBegin
  2
*MODEL_SPACE
 70
     0
 10
0.0
 20
0.0
 30
0.0
  3
*MODEL_SPACE
  1

  0
ENDBLK
  5
21
330
1F
100
AcDbEntity
  8
0
100
AcDbBlockEnd
  0
BLOCK
  5
1C
330
1B
100
AcDbEntity
 67
     1
  8
0
100
AcDbBlockBegin
  2
*PAPER_SPACE
  1

  0
ENDBLK
  5
1D
330
1B
100
AcDbEntity
 67
     1
  8
0
100
AcDbBlockEnd
  0
ENDSEC
  0
SECTION
  2
ENTITIES
  0
LWPOLYLINE
  5
100
100
AcDbEntity
  8
Camada_1
 62
7
100
AcDbPolyline
 90
4
 70
1
 10
134.388476
 20
151.276690
 30
0.0
 10
146.376897
 20
151.648240
 30
0.0
 10
146.376897
 20
166.947050
 30
0.0
 10
134.388476
 20
166.947050
 30
0.0
  0
LWPOLYLINE
  5
101
100
AcDbEntity
  8
Camada_1
 62
7
100
AcDbPolyline
 90
4
 70
1
 10
103.044657
 20
150.305690
 30
0.0
 10
115.033586
 20
150.677240
 30
0.0
 10
115.033586
 20
166.947050
 30
0.0
 10
103.044657
 20
166.947050
 30
0.0
  0
LWPOLYLINE
  5
102
100
AcDbEntity
  8
Camada_1
 62
7
100
AcDbPolyline
 90
10
 70
1
 10
68.856046
 20
166.947050
 30
0.0
 10
68.856046
 20
149.245810
 30
0.0
 10
79.829016
 20
149.585840
 30
0.0
 10
80.641886
 20
149.611140
 30
0.0
 10
95.678696
 20
150.077260
 30
0.0
 10
95.678696
 20
153.739050
 30
0.0
 10
80.641886
 20
153.739050
 30
0.0
 10
80.641886
 20
157.904690
 30
0.0
 10
97.761256
 20
157.904690
 30
0.0
 10
97.761256
 20
166.947030
 30
0.0
  0
LWPOLYLINE
  5
103
100
AcDbEntity
  8
Camada_1
 62
7
100
AcDbPolyline
 90
6
 70
1
 10
20.392856
 20
166.947050
 30
0.0
 10
20.392856
 20
147.744090
 30
0.0
 10
30.684726
 20
148.062930
 30
0.0
 10
31.315186
 20
148.082530
 30
0.0
 10
41.610676
 20
148.401370
 30
0.0
 10
30.248066
 20
166.947010
 30
0.0
  0
LWPOLYLINE
  5
104
100
AcDbEntity
  8
Camada_1
 62
7
100
AcDbPolyline
 90
9
 70
1
 10
53.108167
 20
166.947050
 30
0.0
 10
42.078867
 20
148.415880
 30
0.0
 10
52.050867
 20
148.724910
 30
0.0
 10
52.733517
 20
148.746110
 30
0.0
 10
53.768597
 20
150.488130
 30
0.0
 10
53.769106
 20
150.488130
 30
0.0
 10
52.734026
 20
148.746110
 30
0.0
 10
63.015056
 20
149.064960
 30
0.0
 10
62.963356
 20
166.947070
 30
0.0
  0
LWPOLYLINE
  5
105
100
AcDbEntity
  8
Camada_1
 62
7
100
AcDbPolyline
 90
10
 70
1
 10
-13.795243
 20
166.947050
 30
0.0
 10
-13.795243
 20
146.684200
 30
0.0
 10
-2.822783
 20
147.024240
 30
0.0
 10
-2.009913
 20
147.049540
 30
0.0
 10
13.026897
 20
147.515660
 30
0.0
 10
13.026897
 20
153.739050
 30
0.0
 10
-2.009913
 20
153.739050
 30
0.0
 10
-2.009913
 20
157.904690
 30
0.0
 10
15.109967
 20
157.904690
 30
0.0
 10
15.109967
 20
166.947030
 30
0.0
  0
SPLINE
  5
106
100
AcDbEntity
  8
Camada_1
 62
7
100
AcDbSpline
 70
8
 71
3
 72
8
 73
4
 74
0
 40
0
 40
0
 40
0
 40
0
 40
1
 40
1
 40
1
 40
1
 10
-20.258413
 20
146.484240
 30
0.0
 10
-18.963954
 20
148.469740
 30
0.0
 10
-18.316413
 20
150.820290
 30
0.0
 10
-18.316413
 20
153.536000
 30
0.0
  0
SPLINE
  5
107
100
AcDbEntity
  8
Camada_1
 62
7
100
AcDbSpline
 70
8
 71
3
 72
8
 73
4
 74
0
 40
0
 40
0
 40
0
 40
0
 40
1
 40
1
 40
1
 40
1
 10
-18.316413
 20
153.536000
 30
0.0
 10
-18.316413
 20
157.667740
 30
0.0
 10
-19.739053
 20
160.936040
 30
0.0
 10
-22.583853
 20
163.340570
 30
0.0
  0
SPLINE
  5
108
100
AcDbEntity
  8
Camada_1
 62
7
100
AcDbSpline
 70
8
 71
3
 72
8
 73
4
 74
0
 40
0
 40
0
 40
0
 40
0
 40
1
 40
1
 40
1
 40
1
 10
-22.583853
 20
163.340570
 30
0.0
 10
-25.428653
 20
165.745110
 30
0.0
 10
-29.577073
 20
166.947070
 30
0.0
 10
-35.029603
 20
166.947070
 30
0.0
  0
LWPOLYLINE
  5
109
100
AcDbEntity
  8
Camada_1
 62
7
100
AcDbPolyline
 90
5
 70
0
 10
-51.641514
 20
166.947050
 30
0.0
 10
-51.641514
 20
145.511670
 30
0.0
 10
-41.508274
 20
145.825340
 30
0.0
 10
-39.652573
 20
145.883240
 30
0.0
 10
-20.258413
 20
146.484240
 30
0.0
  0
LWPOLYLINE
  5
10a
100
AcDbEntity
  8
Camada_1
 62
7
100
AcDbPolyline
 90
2
 70
0
 10
-35.029603
 20
166.947070
 30
0.0
 10
-51.641514
 20
166.947050
 30
0.0
  0
SPLINE
  5
10b
100
AcDbEntity
  8
Camada_1
 62
7
100
AcDbSpline
 70
8
 71
3
 72
8
 73
4
 74
0
 40
0
 40
0
 40
0
 40
0
 40
1
 40
1
 40
1
 40
1
 10
-35.283853
 20
157.701620
 30
0.0
 10
-33.624383
 20
157.701620
 30
0.0
 10
-32.405124
 20
157.328930
 30
0.0
 10
-31.626193
 20
156.583860
 30
0.0
  0
SPLINE
  5
10c
100
AcDbEntity
  8
Camada_1
 62
7
100
AcDbSpline
 70
8
 71
3
 72
8
 73
4
 74
0
 40
0
 40
0
 40
0
 40
0
 40
1
 40
1
 40
1
 40
1
 10
-31.626193
 20
156.583860
 30
0.0
 10
-30.813393
 20
155.838790
 30
0.0
 10
-30.407143
 20
154.822920
 30
0.0
 10
-30.407143
 20
153.535980
 30
0.0
  0
SPLINE
  5
10d
100
AcDbEntity
  8
Camada_1
 62
7
100
AcDbSpline
 70
8
 71
3
 72
8
 73
4
 74
0
 40
0
 40
0
 40
0
 40
0
 40
1
 40
1
 40
1
 40
1
 10
-30.407143
 20
153.535980
 30
0.0
 10
-30.407143
 20
152.249050
 30
0.0
 10
-30.813393
 20
151.233170
 30
0.0
 10
-31.626193
 20
150.488110
 30
0.0
  0
SPLINE
  5
10e
100
AcDbEntity
  8
Camada_1
 62
7
100
AcDbSpline
 70
8
 71
3
 72
8
 73
4
 74
0
 40
0
 40
0
 40
0
 40
0
 40
1
 40
1
 40
1
 40
1
 10
-31.626193
 20
150.488110
 30
0.0
 10
-32.405124
 20
149.743040
 30
0.0
 10
-33.624383
 20
149.370350
 30
0.0
 10
-35.283853
 20
149.370350
 30
0.0
  0
LWPOLYLINE
  5
10f
100
AcDbEntity
  8
Camada_1
 62
7
100
AcDbPolyline
 90
2
 70
0
 10
-39.652573
 20
157.701620
 30
0.0
 10
-35.283853
 20
157.701620
 30
0.0
  0
LWPOLYLINE
  5
110
100
AcDbEntity
  8
Camada_1
 62
7
100
AcDbPolyline
 90
3
 70
0
 10
-35.283853
 20
149.370350
 30
0.0
 10
-39.652573
 20
149.370350
 30
0.0
 10
-39.652573
 20
157.701620
 30
0.0
  0
LWPOLYLINE
  5
111
100
AcDbEntity
  8
Camada_1
 62
7
100
AcDbPolyline
 90
8
 70
1
 10
-77.142793
 20
144.721020
 30
0.0
 10
-65.154383
 20
145.092570
 30
0.0
 10
-65.154383
 20
157.650460
 30
0.0
 10
-54.740033
 20
157.650460
 30
0.0
 10
-54.740033
 20
166.947050
 30
0.0
 10
-87.557147
 20
166.947050
 30
0.0
 10
-87.557147
 20
157.650460
 30
0.0
 10
-77.142793
 20
157.650460
 30
0.0
  0
SPLINE
  5
112
100
AcDbEntity
  8
Camada_1
 62
7
100
AcDbSpline
 70
8
 71
3
 72
8
 73
4
 74
0
 40
0
 40
0
 40
0
 40
0
 40
1
 40
1
 40
1
 40
1
 10
279.556876
 20
155.776160
 30
0.0
 10
279.467176
 20
155.962710
 30
0.0
 10
279.422516
 20
156.164330
 30
0.0
 10
279.422516
 20
156.380770
 30
0.0
  0
SPLINE
  5
113
100
AcDbEntity
  8
Camada_1
 62
7
100
AcDbSpline
 70
8
 71
3
 72
8
 73
4
 74
0
 40
0
 40
0
 40
0
 40
0
 40
1
 40
1
 40
1
 40
1
 10
279.422516
 20
156.380770
 30
0.0
 10
279.422516
 20
156.787170
 30
0.0
 10
279.557766
 20
157.159860
 30
0.0
 10
279.828696
 20
157.498530
 30
0.0
  0
SPLINE
  5
114
100
AcDbEntity
  8
Camada_1
 62
7
100
AcDbSpline
 70
8
 71
3
 72
8
 73
4
 74
0
 40
0
 40
0
 40
0
 40
0
 40
1
 40
1
 40
1
 40
1
 10
279.828696
 20
157.498530
 30
0.0
 10
280.133496
 20
157.837200
 30
0.0
 10
280.624656
 20
158.107680
 30
0.0
 10
281.301996
 20
158.310880
 30
0.0
  0
SPLINE
  5
115
100
AcDbEntity
  8
Camada_1
 62
7
100
AcDbSpline
 70
8
 71
3
 72
8
 73
4
 74
0
 40
0
 40
0
 40
0
 40
0
 40
1
 40
1
 40
1
 40
1
 10
281.301996
 20
158.310880
 30
0.0
 10
281.979326
 20
158.514080
 30
0.0
 10
282.893506
 20
158.615780
 30
0.0
 10
284.044976
 20
158.615780
 30
0.0
  0
SPLINE
  5
116
100
AcDbEntity
  8
Camada_1
 62
7
100
AcDbSpline
 70
8
 71
3
 72
8
 73
4
 74
0
 40
0
 40
0
 40
0
 40
0
 40
1
 40
1
 40
1
 40
1
 10
284.044976
 20
158.615780
 30
0.0
 10
285.602846
 20
158.615780
 30
0.0
 10
287.194796
 20
158.395620
 30
0.0
 10
288.820396
 20
157.955350
 30
0.0
  0
SPLINE
  5
117
100
AcDbEntity
  8
Camada_1
 62
7
100
AcDbSpline
 70
8
 71
3
 72
8
 73
4
 74
0
 40
0
 40
0
 40
0
 40
0
 40
1
 40
1
 40
1
 40
1
 10
288.820396
 20
157.955350
 30
0.0
 10
290.330076
 20
157.554820
 30
0.0
 10
291.881646
 20
156.972040
 30
0.0
 10
293.475406
 20
156.207140
 30
0.0
  0
LWPOLYLINE
  5
118
100
AcDbEntity
  8
Camada_1
 62
7
100
AcDbPolyline
 90
2
 70
0
 10
267.590686
 20
155.405120
 30
0.0
 10
279.556876
 20
155.776160
 30
0.0
  0
SPLINE
  5
119
100
AcDbEntity
  8
Camada_1
 62
7
100
AcDbSpline
 70
8
 71
3
 72
8
 73
4
 74
0
 40
0
 40
0
 40
0
 40
0
 40
1
 40
1
 40
1
 40
1
 10
297.557846
 20
164.660900
 30
0.0
 10
295.695177
 20
165.710770
 30
0.0
 10
293.595286
 20
166.489710
 30
0.0
 10
291.258487
 20
166.997710
 30
0.0
  0
SPLINE
  5
11a
100
AcDbEntity
  8
Camada_1
 62
7
100
AcDbSpline
 70
8
 71
3
 72
8
 73
4
 74
0
 40
0
 40
0
 40
0
 40
0
 40
1
 40
1
 40
1
 40
1
 10
291.258487
 20
166.997710
 30
0.0
 10
288.921686
 20
167.505710
 30
0.0
 10
286.551316
 20
167.759940
 30
0.0
 10
284.146776
 20
167.759940
 30
0.0
  0
SPLINE
  5
11b
100
AcDbEntity
  8
Camada_1
 62
7
100
AcDbSpline
 70
8
 71
3
 72
8
 73
4
 74
0
 40
0
 40
0
 40
0
 40
0
 40
1
 40
1
 40
1
 40
1
 10
284.146776
 20
167.759940
 30
0.0
 10
280.489176
 20
167.759940
 30
0.0
 10
277.424256
 20
167.217930
 30
0.0
 10
274.951996
 20
166.134200
 30
0.0
  0
SPLINE
  5
11c
100
AcDbEntity
  8
Camada_1
 62
7
100
AcDbSpline
 70
8
 71
3
 72
8
 73
4
 74
0
 40
0
 40
0
 40
0
 40
0
 40
1
 40
1
 40
1
 40
1
 10
274.951996
 20
166.134200
 30
0.0
 10
272.513596
 20
165.050470
 30
0.0
 10
270.667927
 20
163.594270
 30
0.0
 10
269.414867
 20
161.765470
 30
0.0
  0
SPLINE
  5
11d
100
AcDbEntity
  8
Camada_1
 62
7
100
AcDbSpline
 70
8
 71
3
 72
8
 73
4
 74
0
 40
0
 40
0
 40
0
 40
0
 40
1
 40
1
 40
1
 40
1
 10
269.414867
 20
161.765470
 30
0.0
 10
268.195667
 20
159.970540
 30
0.0
 10
267.586036
 20
157.972340
 30
0.0
 10
267.586036
 20
155.771010
 30
0.0
  0
SPLINE
  5
11e
100
AcDbEntity
  8
Camada_1
 62
7
100
AcDbSpline
 70
8
 71
3
 72
8
 73
4
 74
0
 40
0
 40
0
 40
0
 40
0
 40
1
 40
1
 40
1
 40
1
 10
267.586036
 20
155.771010
 30
0.0
 10
267.586036
 20
155.647660
 30
0.0
 10
267.588037
 20
155.525910
 30
0.0
 10
267.591036
 20
155.405140
 30
0.0
  0
LWPOLYLINE
  5
11f
100
AcDbEntity
  8
Camada_1
 62
7
100
AcDbPolyline
 90
3
 70
0
 10
293.475406
 20
156.207140
 30
0.0
 10
294.055736
 20
156.225240
 30
0.0
 10
297.557846
 20
164.660900
 30
0.0
  0
LWPOLYLINE
  5
120
100
AcDbEntity
  8
Camada_1
 62
7
100
AcDbPolyline
 90
2
 70
0
 10
267.591036
 20
155.405140
 30
0.0
 10
267.590686
 20
155.405120
 30
0.0
  0
LWPOLYLINE
  5
121
100
AcDbEntity
  8
Camada_1
 62
7
100
AcDbPolyline
 90
6
 70
1
 10
235.073807
 20
154.397430
 30
0.0
 10
246.859647
 20
154.762780
 30
0.0
 10
246.859647
 20
157.904710
 30
0.0
 10
263.979017
 20
157.904710
 30
0.0
 10
263.979017
 20
166.947050
 30
0.0
 10
235.073807
 20
166.947050
 30
0.0
  0
LWPOLYLINE
  5
122
100
AcDbEntity
  8
Camada_1
 62
7
100
AcDbPolyline
 90
4
 70
1
 10
217.801997
 20
153.862060
 30
0.0
 10
229.587317
 20
154.227410
 30
0.0
 10
229.587317
 20
166.947050
 30
0.0
 10
217.801997
 20
166.947050
 30
0.0
  0
SPLINE
  5
123
100
AcDbEntity
  8
Camada_1
 62
7
100
AcDbSpline
 70
8
 71
3
 72
8
 73
4
 74
0
 40
0
 40
0
 40
0
 40
0
 40
1
 40
1
 40
1
 40
1
 10
170.812097
 20
167.759920
 30
0.0
 10
167.933427
 20
167.759920
 30
0.0
 10
165.257977
 20
167.302830
 30
0.0
 10
162.785717
 20
166.388430
 30
0.0
  0
SPLINE
  5
124
100
AcDbEntity
  8
Camada_1
 62
7
100
AcDbSpline
 70
8
 71
3
 72
8
 73
4
 74
0
 40
0
 40
0
 40
0
 40
0
 40
1
 40
1
 40
1
 40
1
 10
162.785717
 20
166.388430
 30
0.0
 10
160.347317
 20
165.474030
 30
0.0
 10
158.230647
 20
164.169860
 30
0.0
 10
156.435716
 20
162.476520
 30
0.0
  0
SPLINE
  5
125
100
AcDbEntity
  8
Camada_1
 62
7
100
AcDbSpline
 70
8
 71
3
 72
8
 73
4
 74
0
 40
0
 40
0
 40
0
 40
0
 40
1
 40
1
 40
1
 40
1
 10
156.435716
 20
162.476520
 30
0.0
 10
154.640776
 20
160.817060
 30
0.0
 10
153.234916
 20
158.852930
 30
0.0
 10
152.218917
 20
156.583860
 30
0.0
  0
SPLINE
  5
126
100
AcDbEntity
  8
Camada_1
 62
7
100
AcDbSpline
 70
8
 71
3
 72
8
 73
4
 74
0
 40
0
 40
0
 40
0
 40
0
 40
1
 40
1
 40
1
 40
1
 10
152.218917
 20
156.583860
 30
0.0
 10
151.563056
 20
155.091210
 30
0.0
 10
151.126287
 20
153.492890
 30
0.0
 10
150.908397
 20
151.788800
 30
0.0
  0
LWPOLYLINE
  5
127
100
AcDbEntity
  8
Camada_1
 62
7
100
AcDbPolyline
 90
4
 70
1
 10
194.941886
 20
153.153580
 30
0.0
 10
206.930816
 20
153.525130
 30
0.0
 10
206.930816
 20
166.947050
 30
0.0
 10
194.941886
 20
166.947050
 30
0.0
  0
SPLINE
  5
128
100
AcDbEntity
  8
Camada_1
 62
7
100
AcDbSpline
 70
8
 71
3
 72
8
 73
4
 74
0
 40
0
 40
0
 40
0
 40
0
 40
1
 40
1
 40
1
 40
1
 10
163.216176
 20
152.170170
 30
0.0
 10
163.283777
 20
152.412040
 30
0.0
 10
163.360516
 20
152.647230
 30
0.0
 10
163.446136
 20
152.875560
 30
0.0
  0
SPLINE
  5
129
100
AcDbEntity
  8
Camada_1
 62
7
100
AcDbSpline
 70
8
 71
3
 72
8
 73
4
 74
0
 40
0
 40
0
 40
0
 40
0
 40
1
 40
1
 40
1
 40
1
 10
163.446136
 20
152.875560
 30
0.0
 10
163.852537
 20
153.993160
 30
0.0
 10
164.411316
 20
154.924640
 30
0.0
 10
165.122516
 20
155.669700
 30
0.0
  0
SPLINE
  5
12a
100
AcDbEntity
  8
Camada_1
 62
7
100
AcDbSpline
 70
8
 71
3
 72
8
 73
4
 74
0
 40
0
 40
0
 40
0
 40
0
 40
1
 40
1
 40
1
 40
1
 10
165.122516
 20
155.669700
 30
0.0
 10
165.867586
 20
156.448640
 30
0.0
 10
166.714146
 20
157.040970
 30
0.0
 10
167.662416
 20
157.447370
 30
0.0
  0
SPLINE
  5
12b
100
AcDbEntity
  8
Camada_1
 62
7
100
AcDbSpline
 70
8
 71
3
 72
8
 73
4
 74
0
 40
0
 40
0
 40
0
 40
0
 40
1
 40
1
 40
1
 40
1
 10
167.662416
 20
157.447370
 30
0.0
 10
168.644546
 20
157.853770
 30
0.0
 10
169.694496
 20
158.057150
 30
0.0
 10
170.812096
 20
158.057150
 30
0.0
  0
SPLINE
  5
12c
100
AcDbEntity
  8
Camada_1
 62
7
100
AcDbSpline
 70
8
 71
3
 72
8
 73
4
 74
0
 40
0
 40
0
 40
0
 40
0
 40
1
 40
1
 40
1
 40
1
 10
170.812096
 20
158.057150
 30
0.0
 10
171.929696
 20
158.057150
 30
0.0
 10
172.962346
 20
157.853770
 30
0.0
 10
173.910616
 20
157.447370
 30
0.0
  0
SPLINE
  5
12d
100
AcDbEntity
  8
Camada_1
 62
7
100
AcDbSpline
 70
8
 71
3
 72
8
 73
4
 74
0
 40
0
 40
0
 40
0
 40
0
 40
1
 40
1
 40
1
 40
1
 10
173.910616
 20
157.447370
 30
0.0
 10
174.892746
 20
157.040970
 30
0.0
 10
175.739306
 20
156.448640
 30
0.0
 10
176.450506
 20
155.669700
 30
0.0
  0
SPLINE
  5
12e
100
AcDbEntity
  8
Camada_1
 62
7
100
AcDbSpline
 70
8
 71
3
 72
8
 73
4
 74
0
 40
0
 40
0
 40
0
 40
0
 40
1
 40
1
 40
1
 40
1
 10
176.450506
 20
155.669700
 30
0.0
 10
177.195576
 20
154.924640
 30
0.0
 10
177.771656
 20
153.993160
 30
0.0
 10
178.178056
 20
152.875560
 30
0.0
  0
SPLINE
  5
12f
100
AcDbEntity
  8
Camada_1
 62
7
100
AcDbSpline
 70
8
 71
3
 72
8
 73
4
 74
0
 40
0
 40
0
 40
0
 40
0
 40
1
 40
1
 40
1
 40
1
 10
178.178056
 20
152.875560
 30
0.0
 10
178.207657
 20
152.796760
 30
0.0
 10
178.235856
 20
152.717270
 30
0.0
 10
178.263357
 20
152.636810
 30
0.0
  0
LWPOLYLINE
  5
130
100
AcDbEntity
  8
Camada_1
 62
7
100
AcDbPolyline
 90
2
 70
0
 10
150.908397
 20
151.788800
 30
0.0
 10
163.216176
 20
152.170170
 30
0.0
  0
SPLINE
  5
131
100
AcDbEntity
  8
Camada_1
 62
7
100
AcDbSpline
 70
8
 71
3
 72
8
 73
4
 74
0
 40
0
 40
0
 40
0
 40
0
 40
1
 40
1
 40
1
 40
1
 10
190.504477
 20
153.016120
 30
0.0
 10
190.250497
 20
154.265910
 30
0.0
 10
189.867277
 20
155.455000
 30
0.0
 10
189.354157
 20
156.583860
 30
0.0
  0
SPLINE
  5
132
100
AcDbEntity
  8
Camada_1
 62
7
100
AcDbSpline
 70
8
 71
3
 72
8
 73
4
 74
0
 40
0
 40
0
 40
0
 40
0
 40
1
 40
1
 40
1
 40
1
 10
189.354157
 20
156.583860
 30
0.0
 10
188.372027
 20
158.852930
 30
0.0
 10
186.983457
 20
160.817060
 30
0.0
 10
185.188517
 20
162.476520
 30
0.0
  0
SPLINE
  5
133
100
AcDbEntity
  8
Camada_1
 62
7
100
AcDbSpline
 70
8
 71
3
 72
8
 73
4
 74
0
 40
0
 40
0
 40
0
 40
0
 40
1
 40
1
 40
1
 40
1
 10
185.188517
 20
162.476520
 30
0.0
 10
183.393586
 20
164.169860
 30
0.0
 10
181.276916
 20
165.474030
 30
0.0
 10
178.838516
 20
166.388430
 30
0.0
  0
SPLINE
  5
134
100
AcDbEntity
  8
Camada_1
 62
7
100
AcDbSpline
 70
8
 71
3
 72
8
 73
4
 74
0
 40
0
 40
0
 40
0
 40
0
 40
1
 40
1
 40
1
 40
1
 10
178.838516
 20
166.388430
 30
0.0
 10
176.400116
 20
167.302830
 30
0.0
 10
173.724666
 20
167.759920
 30
0.0
 10
170.812136
 20
167.759920
 30
0.0
  0
LWPOLYLINE
  5
135
100
AcDbEntity
  8
Camada_1
 62
7
100
AcDbPolyline
 90
2
 70
0
 10
178.263357
 20
152.636810
 30
0.0
 10
190.504477
 20
153.016120
 30
0.0
  0
LWPOLYLINE
  5
136
100
AcDbEntity
  8
Camada_1
 62
7
100
AcDbPolyline
 90
1
 70
1
 10
170.812136
 20
167.759920
 30
0.0
  0
LWPOLYLINE
  5
137
100
AcDbEntity
  8
Camada_1
 62
7
100
AcDbPolyline
 90
3
 70
1
 10
41.610677
 20
148.401410
 30
0.0
 10
41.843737
 20
148.021070
 30
0.0
 10
42.078867
 20
148.415880
 30
0.0
  0
SPLINE
  5
138
100
AcDbEntity
  8
Camada_1
 62
7
100
AcDbSpline
 70
8
 71
3
 72
8
 73
4
 74
0
 40
0
 40
0
 40
0
 40
0
 40
1
 40
1
 40
1
 40
1
 10
293.475927
 20
156.207120
 30
0.0
 10
293.633916
 20
156.131320
 30
0.0
 10
293.792536
 20
156.053460
 30
0.0
 10
293.951346
 20
155.974060
 30
0.0
  0
LWPOLYLINE
  5
139
100
AcDbEntity
  8
Camada_1
 62
7
100
AcDbPolyline
 90
2
 70
0
 10
294.055736
 20
156.225220
 30
0.0
 10
293.475927
 20
156.207120
 30
0.0
  0
LWPOLYLINE
  5
13a
100
AcDbEntity
  8
Camada_1
 62
7
100
AcDbPolyline
 90
2
 70
0
 10
293.951346
 20
155.974060
 30
0.0
 10
294.055736
 20
156.225220
 30
0.0
  0
LWPOLYLINE
  5
13b
100
AcDbEntity
  8
Camada_1
 62
7
100
AcDbPolyline
 90
4
 70
1
 10
131.287486
 20
152.348590
 30
0.0
 10
131.287486
 20
132.458850
 30
0.0
 10
143.275907
 20
132.458850
 30
0.0
 10
143.275907
 20
152.720140
 30
0.0
  0
LWPOLYLINE
  5
13c
100
AcDbEntity
  8
Camada_1
 62
7
100
AcDbPolyline
 90
6
 70
1
 10
99.943667
 20
151.377590
 30
0.0
 10
99.943667
 20
132.458850
 30
0.0
 10
127.985366
 20
132.458850
 30
0.0
 10
127.985366
 20
141.755440
 30
0.0
 10
111.932596
 20
141.755440
 30
0.0
 10
111.932596
 20
151.749140
 30
0.0
  0
LWPOLYLINE
  5
13d
100
AcDbEntity
  8
Camada_1
 62
7
100
AcDbPolyline
 90
10
 70
1
 10
92.577706
 20
151.149180
 30
0.0
 10
77.540896
 20
150.683060
 30
0.0
 10
76.728026
 20
150.657760
 30
0.0
 10
65.755056
 20
150.317730
 30
0.0
 10
65.755056
 20
132.458870
 30
0.0
 10
95.320696
 20
132.458870
 30
0.0
 10
95.320696
 20
141.501210
 30
0.0
 10
77.540896
 20
141.501210
 30
0.0
 10
77.540896
 20
146.174830
 30
0.0
 10
92.577706
 20
146.174830
 30
0.0
  0
LWPOLYLINE
  5
13e
100
AcDbEntity
  8
Camada_1
 62
7
100
AcDbPolyline
 90
17
 70
1
 10
59.913546
 20
150.136840
 30
0.0
 10
49.632526
 20
149.817990
 30
0.0
 10
48.949876
 20
149.796790
 30
0.0
 10
38.977876
 20
149.487760
 30
0.0
 10
38.742746
 20
149.092950
 30
0.0
 10
38.509686
 20
149.473290
 30
0.0
 10
28.214196
 20
149.154450
 30
0.0
 10
27.583736
 20
149.134850
 30
0.0
 10
17.291866
 20
148.816010
 30
0.0
 10
17.291866
 20
132.458870
 30
0.0
 10
28.214196
 20
132.458870
 30
0.0
 10
28.214196
 20
148.117340
 30
0.0
 10
35.935686
 20
135.659190
 30
0.0
 10
41.219086
 20
135.659190
 30
0.0
 10
48.956076
 20
148.679580
 30
0.0
 10
49.041876
 20
132.458870
 30
0.0
 10
59.964206
 20
132.458870
 30
0.0
  0
LWPOLYLINE
  5
13f
100
AcDbEntity
  8
Camada_1
 62
7
100
AcDbPolyline
 90
10
 70
1
 10
9.925906
 20
148.587580
 30
0.0
 10
-5.110904
 20
148.121460
 30
0.0
 10
-5.923774
 20
148.096160
 30
0.0
 10
-16.896234
 20
147.756120
 30
0.0
 10
-16.896234
 20
132.458870
 30
0.0
 10
12.669406
 20
132.458870
 30
0.0
 10
12.669406
 20
141.501210
 30
0.0
 10
-5.110904
 20
141.501210
 30
0.0
 10
-5.110904
 20
146.174830
 30
0.0
 10
9.925906
 20
146.174830
 30
0.0
  0
SPLINE
  5
140
100
AcDbEntity
  8
Camada_1
 62
7
100
AcDbSpline
 70
8
 71
3
 72
8
 73
4
 74
0
 40
0
 40
0
 40
0
 40
0
 40
1
 40
1
 40
1
 40
1
 10
-28.123453
 20
143.402860
 30
0.0
 10
-26.124503
 20
144.420110
 30
0.0
 10
-24.549363
 20
145.784350
 30
0.0
 10
-23.398673
 20
147.495640
 30
0.0
  0
SPLINE
  5
141
100
AcDbEntity
  8
Camada_1
 62
7
100
AcDbSpline
 70
8
 71
3
 72
8
 73
4
 74
0
 40
0
 40
0
 40
0
 40
0
 40
1
 40
1
 40
1
 40
1
 10
-23.398673
 20
147.495640
 30
0.0
 10
-23.385473
 20
147.515640
 30
0.0
 10
-23.372473
 20
147.536040
 30
0.0
 10
-23.359373
 20
147.556140
 30
0.0
  0
LWPOLYLINE
  5
142
100
AcDbEntity
  8
Camada_1
 62
7
100
AcDbPolyline
 90
11
 70
0
 10
-23.359403
 20
147.556120
 30
0.0
 10
-42.753563
 20
146.955120
 30
0.0
 10
-44.609263
 20
146.897220
 30
0.0
 10
-54.742503
 20
146.583550
 30
0.0
 10
-54.742503
 20
132.458830
 30
0.0
 10
-42.753563
 20
132.458830
 30
0.0
 10
-42.753563
 20
141.399880
 30
0.0
 10
-39.488133
 20
141.399880
 30
0.0
 10
-33.456973
 20
132.458830
 30
0.0
 10
-20.655693
 20
132.458830
 30
0.0
 10
-28.123453
 20
143.402860
 30
0.0
  0
LWPOLYLINE
  5
143
100
AcDbEntity
  8
Camada_1
 62
7
100
AcDbPolyline
 90
1
 70
1
 10
-23.359373
 20
147.556140
 30
0.0
  0
SPLINE
  5
144
100
AcDbEntity
  8
Camada_1
 62
7
100
AcDbSpline
 70
8
 71
3
 72
8
 73
4
 74
0
 40
0
 40
0
 40
0
 40
0
 40
1
 40
1
 40
1
 40
1
 10
264.489696
 20
156.477020
 30
0.0
 10
264.532996
 20
154.740900
 30
0.0
 10
264.886696
 20
153.271220
 30
0.0
 10
265.551647
 20
152.067990
 30
0.0
  0
SPLINE
  5
145
100
AcDbEntity
  8
Camada_1
 62
7
100
AcDbSpline
 70
8
 71
3
 72
8
 73
4
 74
0
 40
0
 40
0
 40
0
 40
0
 40
1
 40
1
 40
1
 40
1
 10
265.551647
 20
152.067990
 30
0.0
 10
266.262847
 20
150.814920
 30
0.0
 10
267.194326
 20
149.798530
 30
0.0
 10
268.345787
 20
149.019590
 30
0.0
  0
SPLINE
  5
146
100
AcDbEntity
  8
Camada_1
 62
7
100
AcDbSpline
 70
8
 71
3
 72
8
 73
4
 74
0
 40
0
 40
0
 40
0
 40
0
 40
1
 40
1
 40
1
 40
1
 10
268.345787
 20
149.019590
 30
0.0
 10
269.531127
 20
148.240660
 30
0.0
 10
270.818007
 20
147.614250
 30
0.0
 10
272.206537
 20
147.140120
 30
0.0
  0
SPLINE
  5
147
100
AcDbEntity
  8
Camada_1
 62
7
100
AcDbSpline
 70
8
 71
3
 72
8
 73
4
 74
0
 40
0
 40
0
 40
0
 40
0
 40
1
 40
1
 40
1
 40
1
 10
272.206537
 20
147.140120
 30
0.0
 10
273.628937
 20
146.665990
 30
0.0
 10
275.034287
 20
146.276520
 30
0.0
 10
276.422817
 20
145.971720
 30
0.0
  0
SPLINE
  5
148
100
AcDbEntity
  8
Camada_1
 62
7
100
AcDbSpline
 70
8
 71
3
 72
8
 73
4
 74
0
 40
0
 40
0
 40
0
 40
0
 40
1
 40
1
 40
1
 40
1
 10
276.422817
 20
145.971720
 30
0.0
 10
277.811347
 20
145.700780
 30
0.0
 10
279.081457
 20
145.429780
 30
0.0
 10
280.232916
 20
145.158850
 30
0.0
  0
SPLINE
  5
149
100
AcDbEntity
  8
Camada_1
 62
7
100
AcDbSpline
 70
8
 71
3
 72
8
 73
4
 74
0
 40
0
 40
0
 40
0
 40
0
 40
1
 40
1
 40
1
 40
1
 10
280.232916
 20
145.158850
 30
0.0
 10
281.418256
 20
144.921780
 30
0.0
 10
282.366507
 20
144.617220
 30
0.0
 10
283.077706
 20
144.244690
 30
0.0
  0
SPLINE
  5
14a
100
AcDbEntity
  8
Camada_1
 62
7
100
AcDbSpline
 70
8
 71
3
 72
8
 73
4
 74
0
 40
0
 40
0
 40
0
 40
0
 40
1
 40
1
 40
1
 40
1
 10
283.077706
 20
144.244690
 30
0.0
 10
283.788906
 20
143.872160
 30
0.0
 10
284.144306
 20
143.364220
 30
0.0
 10
284.144306
 20
142.720750
 30
0.0
  0
SPLINE
  5
14b
100
AcDbEntity
  8
Camada_1
 62
7
100
AcDbSpline
 70
8
 71
3
 72
8
 73
4
 74
0
 40
0
 40
0
 40
0
 40
0
 40
1
 40
1
 40
1
 40
1
 10
284.144306
 20
142.720750
 30
0.0
 10
284.144306
 20
142.314350
 30
0.0
 10
283.992286
 20
141.958430
 30
0.0
 10
283.687486
 20
141.653630
 30
0.0
  0
SPLINE
  5
14c
100
AcDbEntity
  8
Camada_1
 62
7
100
AcDbSpline
 70
8
 71
3
 72
8
 73
4
 74
0
 40
0
 40
0
 40
0
 40
0
 40
1
 40
1
 40
1
 40
1
 10
283.687486
 20
141.653630
 30
0.0
 10
283.382686
 20
141.382700
 30
0.0
 10
282.891526
 20
141.162540
 30
0.0
 10
282.214196
 20
140.993210
 30
0.0
  0
SPLINE
  5
14d
100
AcDbEntity
  8
Camada_1
 62
7
100
AcDbSpline
 70
8
 71
3
 72
8
 73
4
 74
0
 40
0
 40
0
 40
0
 40
0
 40
1
 40
1
 40
1
 40
1
 10
282.214196
 20
140.993210
 30
0.0
 10
281.570726
 20
140.857740
 30
0.0
 10
280.673316
 20
140.790120
 30
0.0
 10
279.521856
 20
140.790120
 30
0.0
  0
SPLINE
  5
14e
100
AcDbEntity
  8
Camada_1
 62
7
100
AcDbSpline
 70
8
 71
3
 72
8
 73
4
 74
0
 40
0
 40
0
 40
0
 40
0
 40
1
 40
1
 40
1
 40
1
 10
279.521856
 20
140.790120
 30
0.0
 10
277.557586
 20
140.790120
 30
0.0
 10
275.525316
 20
141.077900
 30
0.0
 10
273.425586
 20
141.653630
 30
0.0
  0
SPLINE
  5
14f
100
AcDbEntity
  8
Camada_1
 62
7
100
AcDbSpline
 70
8
 71
3
 72
8
 73
4
 74
0
 40
0
 40
0
 40
0
 40
0
 40
1
 40
1
 40
1
 40
1
 10
273.425586
 20
141.653630
 30
0.0
 10
271.359716
 20
142.263230
 30
0.0
 10
269.480496
 20
143.059470
 30
0.0
 10
267.787166
 20
144.041600
 30
0.0
  0
LWPOLYLINE
  5
150
100
AcDbEntity
  8
Camada_1
 62
7
100
AcDbPolyline
 90
4
 70
1
 10
-80.243783
 20
145.792920
 30
0.0
 10
-80.243783
 20
132.458850
 30
0.0
 10
-68.255373
 20
132.458850
 30
0.0
 10
-68.255373
 20
146.164470
 30
0.0
  0
SPLINE
  5
151
100
AcDbEntity
  8
Camada_1
 62
7
100
AcDbSpline
 70
8
 71
3
 72
8
 73
4
 74
0
 40
0
 40
0
 40
0
 40
0
 40
1
 40
1
 40
1
 40
1
 10
263.925906
 20
135.303630
 30
0.0
 10
265.720836
 20
134.219900
 30
0.0
 10
268.006816
 20
133.339790
 30
0.0
 10
270.783886
 20
132.662450
 30
0.0
  0
SPLINE
  5
152
100
AcDbEntity
  8
Camada_1
 62
7
100
AcDbSpline
 70
8
 71
3
 72
8
 73
4
 74
0
 40
0
 40
0
 40
0
 40
0
 40
1
 40
1
 40
1
 40
1
 10
270.783886
 20
132.662450
 30
0.0
 10
273.560946
 20
131.985120
 30
0.0
 10
276.439786
 20
131.645980
 30
0.0
 10
279.420046
 20
131.645980
 30
0.0
  0
SPLINE
  5
153
100
AcDbEntity
  8
Camada_1
 62
7
100
AcDbSpline
 70
8
 71
3
 72
8
 73
4
 74
0
 40
0
 40
0
 40
0
 40
0
 40
1
 40
1
 40
1
 40
1
 10
279.420046
 20
131.645980
 30
0.0
 10
283.111516
 20
131.645980
 30
0.0
 10
286.176436
 20
132.187980
 30
0.0
 10
288.614836
 20
133.271720
 30
0.0
  0
SPLINE
  5
154
100
AcDbEntity
  8
Camada_1
 62
7
100
AcDbSpline
 70
8
 71
3
 72
8
 73
4
 74
0
 40
0
 40
0
 40
0
 40
0
 40
1
 40
1
 40
1
 40
1
 10
288.614836
 20
133.271720
 30
0.0
 10
291.053236
 20
134.389320
 30
0.0
 10
292.882126
 20
135.845510
 30
0.0
 10
294.101326
 20
137.640440
 30
0.0
  0
SPLINE
  5
155
100
AcDbEntity
  8
Camada_1
 62
7
100
AcDbSpline
 70
8
 71
3
 72
8
 73
4
 74
0
 40
0
 40
0
 40
0
 40
0
 40
1
 40
1
 40
1
 40
1
 10
294.101326
 20
137.640440
 30
0.0
 10
295.354386
 20
139.469240
 30
0.0
 10
295.980796
 20
141.467440
 30
0.0
 10
295.980796
 20
143.634910
 30
0.0
  0
SPLINE
  5
156
100
AcDbEntity
  8
Camada_1
 62
7
100
AcDbSpline
 70
8
 71
3
 72
8
 73
4
 74
0
 40
0
 40
0
 40
0
 40
0
 40
1
 40
1
 40
1
 40
1
 10
295.980796
 20
143.634910
 30
0.0
 10
295.980796
 20
145.497580
 30
0.0
 10
295.625397
 20
147.055460
 30
0.0
 10
294.914197
 20
148.308530
 30
0.0
  0
SPLINE
  5
157
100
AcDbEntity
  8
Camada_1
 62
7
100
AcDbSpline
 70
8
 71
3
 72
8
 73
4
 74
0
 40
0
 40
0
 40
0
 40
0
 40
1
 40
1
 40
1
 40
1
 10
294.914197
 20
148.308530
 30
0.0
 10
294.202996
 20
149.561590
 30
0.0
 10
293.254736
 20
150.577470
 30
0.0
 10
292.069407
 20
151.356400
 30
0.0
  0
SPLINE
  5
158
100
AcDbEntity
  8
Camada_1
 62
7
100
AcDbSpline
 70
8
 71
3
 72
8
 73
4
 74
0
 40
0
 40
0
 40
0
 40
0
 40
1
 40
1
 40
1
 40
1
 10
292.069407
 20
151.356400
 30
0.0
 10
290.917936
 20
152.135330
 30
0.0
 10
289.647837
 20
152.762260
 30
0.0
 10
288.259307
 20
153.236390
 30
0.0
  0
SPLINE
  5
159
100
AcDbEntity
  8
Camada_1
 62
7
100
AcDbSpline
 70
8
 71
3
 72
8
 73
4
 74
0
 40
0
 40
0
 40
0
 40
0
 40
1
 40
1
 40
1
 40
1
 10
288.259307
 20
153.236390
 30
0.0
 10
286.870767
 20
153.710520
 30
0.0
 10
285.465427
 20
154.082700
 30
0.0
 10
284.043027
 20
154.353630
 30
0.0
  0
SPLINE
  5
15a
100
AcDbEntity
  8
Camada_1
 62
7
100
AcDbSpline
 70
8
 71
3
 72
8
 73
4
 74
0
 40
0
 40
0
 40
0
 40
0
 40
1
 40
1
 40
1
 40
1
 10
284.043027
 20
154.353630
 30
0.0
 10
282.654487
 20
154.624570
 30
0.0
 10
281.367607
 20
154.878800
 30
0.0
 10
280.182277
 20
155.115860
 30
0.0
  0
SPLINE
  5
15b
100
AcDbEntity
  8
Camada_1
 62
7
100
AcDbSpline
 70
8
 71
3
 72
8
 73
4
 74
0
 40
0
 40
0
 40
0
 40
0
 40
1
 40
1
 40
1
 40
1
 10
280.182277
 20
155.115860
 30
0.0
 10
279.030807
 20
155.352930
 30
0.0
 10
278.099337
 20
155.640710
 30
0.0
 10
277.388137
 20
155.979370
 30
0.0
  0
SPLINE
  5
15c
100
AcDbEntity
  8
Camada_1
 62
7
100
AcDbSpline
 70
8
 71
3
 72
8
 73
4
 74
0
 40
0
 40
0
 40
0
 40
0
 40
1
 40
1
 40
1
 40
1
 10
277.388137
 20
155.979370
 30
0.0
 10
276.929637
 20
156.219540
 30
0.0
 10
276.618807
 20
156.508850
 30
0.0
 10
276.455887
 20
156.847540
 30
0.0
  0
LWPOLYLINE
  5
15d
100
AcDbEntity
  8
Camada_1
 62
7
100
AcDbPolyline
 90
2
 70
0
 10
267.787166
 20
144.041600
 30
0.0
 10
263.925906
 20
135.303630
 30
0.0
  0
LWPOLYLINE
  5
15e
100
AcDbEntity
  8
Camada_1
 62
7
100
AcDbPolyline
 90
3
 70
0
 10
276.455887
 20
156.847540
 30
0.0
 10
276.455887
 20
156.848060
 30
0.0
 10
264.489696
 20
156.477020
 30
0.0
  0
LWPOLYLINE
  5
15f
100
AcDbEntity
  8
Camada_1
 62
7
100
AcDbPolyline
 90
10
 70
1
 10
243.758657
 20
155.834680
 30
0.0
 10
231.972817
 20
155.469330
 30
0.0
 10
231.972817
 20
132.458850
 30
0.0
 10
261.538456
 20
132.458850
 30
0.0
 10
261.538456
 20
141.501190
 30
0.0
 10
243.758656
 20
141.501190
 30
0.0
 10
243.758656
 20
146.174810
 30
0.0
 10
258.795466
 20
146.174810
 30
0.0
 10
258.795466
 20
154.810970
 30
0.0
 10
243.758656
 20
154.810970
 30
0.0
  0
SPLINE
  5
160
100
AcDbEntity
  8
Camada_1
 62
7
100
AcDbSpline
 70
8
 71
3
 72
8
 73
4
 74
0
 40
0
 40
0
 40
0
 40
0
 40
1
 40
1
 40
1
 40
1
 10
191.840896
 20
148.460970
 30
0.0
 10
191.840896
 20
143.143900
 30
0.0
 10
193.364716
 20
139.012260
 30
0.0
 10
196.412716
 20
136.065860
 30
0.0
  0
SPLINE
  5
161
100
AcDbEntity
  8
Camada_1
 62
7
100
AcDbSpline
 70
8
 71
3
 72
8
 73
4
 74
0
 40
0
 40
0
 40
0
 40
0
 40
1
 40
1
 40
1
 40
1
 10
196.412716
 20
136.065860
 30
0.0
 10
199.460716
 20
133.119460
 30
0.0
 10
203.711337
 20
131.645980
 30
0.0
 10
209.163877
 20
131.645980
 30
0.0
  0
SPLINE
  5
162
100
AcDbEntity
  8
Camada_1
 62
7
100
AcDbSpline
 70
8
 71
3
 72
8
 73
4
 74
0
 40
0
 40
0
 40
0
 40
0
 40
1
 40
1
 40
1
 40
1
 10
209.163877
 20
131.645980
 30
0.0
 10
214.616407
 20
131.645980
 30
0.0
 10
218.866516
 20
133.119460
 30
0.0
 10
221.914516
 20
136.065860
 30
0.0
  0
SPLINE
  5
163
100
AcDbEntity
  8
Camada_1
 62
7
100
AcDbSpline
 70
8
 71
3
 72
8
 73
4
 74
0
 40
0
 40
0
 40
0
 40
0
 40
1
 40
1
 40
1
 40
1
 10
221.914516
 20
136.065860
 30
0.0
 10
224.962516
 20
139.012260
 30
0.0
 10
226.486327
 20
143.143900
 30
0.0
 10
226.486327
 20
148.460970
 30
0.0
  0
LWPOLYLINE
  5
164
100
AcDbEntity
  8
Camada_1
 62
7
100
AcDbPolyline
 90
2
 70
0
 10
191.840896
 20
154.225480
 30
0.0
 10
191.840896
 20
148.460970
 30
0.0
  0
SPLINE
  5
165
100
AcDbEntity
  8
Camada_1
 62
7
100
AcDbSpline
 70
8
 71
3
 72
8
 73
4
 74
0
 40
0
 40
0
 40
0
 40
0
 40
1
 40
1
 40
1
 40
1
 10
214.701007
 20
148.816500
 30
0.0
 10
214.701007
 20
146.107170
 30
0.0
 10
214.209836
 20
144.177110
 30
0.0
 10
213.227707
 20
143.025640
 30
0.0
  0
SPLINE
  5
166
100
AcDbEntity
  8
Camada_1
 62
7
100
AcDbSpline
 70
8
 71
3
 72
8
 73
4
 74
0
 40
0
 40
0
 40
0
 40
0
 40
1
 40
1
 40
1
 40
1
 10
213.227707
 20
143.025640
 30
0.0
 10
212.279437
 20
141.908040
 30
0.0
 10
210.958497
 20
141.349260
 30
0.0
 10
209.265156
 20
141.349260
 30
0.0
  0
SPLINE
  5
167
100
AcDbEntity
  8
Camada_1
 62
7
100
AcDbSpline
 70
8
 71
3
 72
8
 73
4
 74
0
 40
0
 40
0
 40
0
 40
0
 40
1
 40
1
 40
1
 40
1
 10
209.265156
 20
141.349260
 30
0.0
 10
207.605696
 20
141.349260
 30
0.0
 10
206.285257
 20
141.908040
 30
0.0
 10
205.303126
 20
143.025640
 30
0.0
  0
SPLINE
  5
168
100
AcDbEntity
  8
Camada_1
 62
7
100
AcDbSpline
 70
8
 71
3
 72
8
 73
4
 74
0
 40
0
 40
0
 40
0
 40
0
 40
1
 40
1
 40
1
 40
1
 10
205.303126
 20
143.025640
 30
0.0
 10
204.320996
 20
144.177110
 30
0.0
 10
203.829826
 20
146.107170
 30
0.0
 10
203.829826
 20
148.816500
 30
0.0
  0
LWPOLYLINE
  5
169
100
AcDbEntity
  8
Camada_1
 62
7
100
AcDbPolyline
 90
4
 70
0
 10
226.486327
 20
148.460970
 30
0.0
 10
226.486327
 20
155.299310
 30
0.0
 10
214.701007
 20
154.933960
 30
0.0
 10
214.701007
 20
148.816500
 30
0.0
  0
LWPOLYLINE
  5
16a
100
AcDbEntity
  8
Camada_1
 62
7
100
AcDbPolyline
 90
3
 70
0
 10
203.829826
 20
148.816500
 30
0.0
 10
203.829826
 20
154.597030
 30
0.0
 10
191.840896
 20
154.225480
 30
0.0
  0
SPLINE
  5
16b
100
AcDbEntity
  8
Camada_1
 62
7
100
AcDbSpline
 70
8
 71
3
 72
8
 73
4
 74
0
 40
0
 40
0
 40
0
 40
0
 40
1
 40
1
 40
1
 40
1
 10
175.162327
 20
153.708710
 30
0.0
 10
175.511747
 20
152.683260
 30
0.0
 10
175.686327
 20
151.526670
 30
0.0
 10
175.686327
 20
150.239160
 30
0.0
  0
SPLINE
  5
16c
100
AcDbEntity
  8
Camada_1
 62
7
100
AcDbSpline
 70
8
 71
3
 72
8
 73
4
 74
0
 40
0
 40
0
 40
0
 40
0
 40
1
 40
1
 40
1
 40
1
 10
175.686327
 20
150.239160
 30
0.0
 10
175.686327
 20
148.850620
 30
0.0
 10
175.483467
 20
147.597300
 30
0.0
 10
175.077067
 20
146.479700
 30
0.0
  0
SPLINE
  5
16d
100
AcDbEntity
  8
Camada_1
 62
7
100
AcDbSpline
 70
8
 71
3
 72
8
 73
4
 74
0
 40
0
 40
0
 40
0
 40
0
 40
1
 40
1
 40
1
 40
1
 10
175.077067
 20
146.479700
 30
0.0
 10
174.670666
 20
145.395960
 30
0.0
 10
174.094586
 20
144.464490
 30
0.0
 10
173.349516
 20
143.685550
 30
0.0
  0
SPLINE
  5
16e
100
AcDbEntity
  8
Camada_1
 62
7
100
AcDbSpline
 70
8
 71
3
 72
8
 73
4
 74
0
 40
0
 40
0
 40
0
 40
0
 40
1
 40
1
 40
1
 40
1
 10
173.349516
 20
143.685550
 30
0.0
 10
172.638316
 20
142.940490
 30
0.0
 10
171.791757
 20
142.364930
 30
0.0
 10
170.809626
 20
141.958530
 30
0.0
  0
SPLINE
  5
16f
100
AcDbEntity
  8
Camada_1
 62
7
100
AcDbSpline
 70
8
 71
3
 72
8
 73
4
 74
0
 40
0
 40
0
 40
0
 40
0
 40
1
 40
1
 40
1
 40
1
 10
170.809626
 20
141.958530
 30
0.0
 10
169.861356
 20
141.552130
 30
0.0
 10
168.828706
 20
141.349260
 30
0.0
 10
167.711106
 20
141.349260
 30
0.0
  0
SPLINE
  5
170
100
AcDbEntity
  8
Camada_1
 62
7
100
AcDbSpline
 70
8
 71
3
 72
8
 73
4
 74
0
 40
0
 40
0
 40
0
 40
0
 40
1
 40
1
 40
1
 40
1
 10
167.711106
 20
141.349260
 30
0.0
 10
166.593506
 20
141.349260
 30
0.0
 10
165.543556
 20
141.552130
 30
0.0
 10
164.561426
 20
141.958530
 30
0.0
  0
SPLINE
  5
171
100
AcDbEntity
  8
Camada_1
 62
7
100
AcDbSpline
 70
8
 71
3
 72
8
 73
4
 74
0
 40
0
 40
0
 40
0
 40
0
 40
1
 40
1
 40
1
 40
1
 10
164.561426
 20
141.958530
 30
0.0
 10
163.613157
 20
142.364930
 30
0.0
 10
162.766596
 20
142.940490
 30
0.0
 10
162.021526
 20
143.685550
 30
0.0
  0
SPLINE
  5
172
100
AcDbEntity
  8
Camada_1
 62
7
100
AcDbSpline
 70
8
 71
3
 72
8
 73
4
 74
0
 40
0
 40
0
 40
0
 40
0
 40
1
 40
1
 40
1
 40
1
 10
162.021526
 20
143.685550
 30
0.0
 10
161.310326
 20
144.464490
 30
0.0
 10
160.751547
 20
145.395960
 30
0.0
 10
160.345146
 20
146.479700
 30
0.0
  0
SPLINE
  5
173
100
AcDbEntity
  8
Camada_1
 62
7
100
AcDbSpline
 70
8
 71
3
 72
8
 73
4
 74
0
 40
0
 40
0
 40
0
 40
0
 40
1
 40
1
 40
1
 40
1
 10
160.345146
 20
146.479700
 30
0.0
 10
159.938746
 20
147.597300
 30
0.0
 10
159.735366
 20
148.850620
 30
0.0
 10
159.735366
 20
150.239160
 30
0.0
  0
SPLINE
  5
174
100
AcDbEntity
  8
Camada_1
 62
7
100
AcDbSpline
 70
8
 71
3
 72
8
 73
4
 74
0
 40
0
 40
0
 40
0
 40
0
 40
1
 40
1
 40
1
 40
1
 10
159.735366
 20
150.239160
 30
0.0
 10
159.735366
 20
151.335140
 30
0.0
 10
159.861996
 20
152.335980
 30
0.0
 10
160.115186
 20
153.242070
 30
0.0
  0
LWPOLYLINE
  5
175
100
AcDbEntity
  8
Camada_1
 62
7
100
AcDbPolyline
 90
2
 70
0
 10
187.403447
 20
154.088020
 30
0.0
 10
175.162327
 20
153.708710
 30
0.0
  0
SPLINE
  5
176
100
AcDbEntity
  8
Camada_1
 62
7
100
AcDbSpline
 70
8
 71
3
 72
8
 73
4
 74
0
 40
0
 40
0
 40
0
 40
0
 40
1
 40
1
 40
1
 40
1
 10
147.807407
 20
152.860700
 30
0.0
 10
147.699027
 20
152.012970
 30
0.0
 10
147.645147
 20
151.139210
 30
0.0
 10
147.645147
 20
150.239160
 30
0.0
  0
SPLINE
  5
177
100
AcDbEntity
  8
Camada_1
 62
7
100
AcDbSpline
 70
8
 71
3
 72
8
 73
4
 74
0
 40
0
 40
0
 40
0
 40
0
 40
1
 40
1
 40
1
 40
1
 10
147.645147
 20
150.239160
 30
0.0
 10
147.645147
 20
147.563690
 30
0.0
 10
148.135797
 20
145.091110
 30
0.0
 10
149.117927
 20
142.822040
 30
0.0
  0
SPLINE
  5
178
100
AcDbEntity
  8
Camada_1
 62
7
100
AcDbSpline
 70
8
 71
3
 72
8
 73
4
 74
0
 40
0
 40
0
 40
0
 40
0
 40
1
 40
1
 40
1
 40
1
 10
149.117927
 20
142.822040
 30
0.0
 10
150.133927
 20
140.552970
 30
0.0
 10
151.539786
 20
138.572070
 30
0.0
 10
153.334726
 20
136.878730
 30
0.0
  0
SPLINE
  5
179
100
AcDbEntity
  8
Camada_1
 62
7
100
AcDbSpline
 70
8
 71
3
 72
8
 73
4
 74
0
 40
0
 40
0
 40
0
 40
0
 40
1
 40
1
 40
1
 40
1
 10
153.334726
 20
136.878730
 30
0.0
 10
155.129657
 20
135.219270
 30
0.0
 10
157.246327
 20
133.932390
 30
0.0
 10
159.684727
 20
133.017990
 30
0.0
  0
SPLINE
  5
17a
100
AcDbEntity
  8
Camada_1
 62
7
100
AcDbSpline
 70
8
 71
3
 72
8
 73
4
 74
0
 40
0
 40
0
 40
0
 40
0
 40
1
 40
1
 40
1
 40
1
 10
159.684727
 20
133.017990
 30
0.0
 10
160.684707
 20
132.648130
 30
0.0
 10
161.717797
 20
132.353030
 30
0.0
 10
162.784277
 20
132.132770
 30
0.0
  0
SPLINE
  5
17b
100
AcDbEntity
  8
Camada_1
 62
7
100
AcDbSpline
 70
8
 71
3
 72
8
 73
4
 74
0
 40
0
 40
0
 40
0
 40
0
 40
1
 40
1
 40
1
 40
1
 10
162.784277
 20
132.132770
 30
0.0
 10
162.370527
 20
132.561460
 30
0.0
 10
161.947057
 20
133.008580
 30
0.0
 10
161.513547
 20
133.474810
 30
0.0
  0
LWPOLYLINE
  5
17c
100
AcDbEntity
  8
Camada_1
 62
7
100
AcDbPolyline
 90
2
 70
0
 10
160.115186
 20
153.242070
 30
0.0
 10
147.807407
 20
152.860700
 30
0.0
  0
SPLINE
  5
17d
100
AcDbEntity
  8
Camada_1
 62
7
100
AcDbSpline
 70
8
 71
3
 72
8
 73
4
 74
0
 40
0
 40
0
 40
0
 40
0
 40
1
 40
1
 40
1
 40
1
 10
173.908657
 20
136.523200
 30
0.0
 10
174.721456
 20
135.270130
 30
0.0
 10
175.415486
 20
134.304580
 30
0.0
 10
175.991217
 20
133.627250
 30
0.0
  0
SPLINE
  5
17e
100
AcDbEntity
  8
Camada_1
 62
7
100
AcDbSpline
 70
8
 71
3
 72
8
 73
4
 74
0
 40
0
 40
0
 40
0
 40
0
 40
1
 40
1
 40
1
 40
1
 10
175.991217
 20
133.627250
 30
0.0
 10
176.104856
 20
133.493560
 30
0.0
 10
176.217896
 20
133.367870
 30
0.0
 10
176.330217
 20
133.250010
 30
0.0
  0
SPLINE
  5
17f
100
AcDbEntity
  8
Camada_1
 62
7
100
AcDbSpline
 70
8
 71
3
 72
8
 73
4
 74
0
 40
0
 40
0
 40
0
 40
0
 40
1
 40
1
 40
1
 40
1
 10
176.330217
 20
133.250010
 30
0.0
 10
178.520406
 20
134.145540
 30
0.0
 10
180.439637
 20
135.355240
 30
0.0
 10
182.087487
 20
136.878730
 30
0.0
  0
SPLINE
  5
180
100
AcDbEntity
  8
Camada_1
 62
7
100
AcDbSpline
 70
8
 71
3
 72
8
 73
4
 74
0
 40
0
 40
0
 40
0
 40
0
 40
1
 40
1
 40
1
 40
1
 10
182.087487
 20
136.878730
 30
0.0
 10
183.882427
 20
138.572070
 30
0.0
 10
185.270997
 20
140.552970
 30
0.0
 10
186.253127
 20
142.822040
 30
0.0
  0
SPLINE
  5
181
100
AcDbEntity
  8
Camada_1
 62
7
100
AcDbSpline
 70
8
 71
3
 72
8
 73
4
 74
0
 40
0
 40
0
 40
0
 40
0
 40
1
 40
1
 40
1
 40
1
 10
186.253127
 20
142.822040
 30
0.0
 10
187.269127
 20
145.091110
 30
0.0
 10
187.777066
 20
147.563690
 30
0.0
 10
187.777066
 20
150.239160
 30
0.0
  0
SPLINE
  5
182
100
AcDbEntity
  8
Camada_1
 62
7
100
AcDbSpline
 70
8
 71
3
 72
8
 73
4
 74
0
 40
0
 40
0
 40
0
 40
0
 40
1
 40
1
 40
1
 40
1
 10
187.777066
 20
150.239160
 30
0.0
 10
187.777066
 20
151.580180
 30
0.0
 10
187.652346
 20
152.863160
 30
0.0
 10
187.403446
 20
154.088020
 30
0.0
  0
LWPOLYLINE
  5
183
100
AcDbEntity
  8
Camada_1
 62
7
100
AcDbPolyline
 90
2
 70
0
 10
161.513547
 20
133.474810
 30
0.0
 10
173.908657
 20
136.523200
 30
0.0
  0
SPLINE
  5
184
100
AcDbEntity
  8
Camada_1
 62
7
100
AcDbSpline
 70
8
 71
3
 72
8
 73
4
 74
0
 40
0
 40
0
 40
0
 40
0
 40
1
 40
1
 40
1
 40
1
 10
176.330217
 20
133.250010
 30
0.0
 10
176.134737
 20
133.170110
 30
0.0
 10
175.937287
 20
133.092910
 30
0.0
 10
175.737486
 20
133.017990
 30
0.0
  0
SPLINE
  5
185
100
AcDbEntity
  8
Camada_1
 62
7
100
AcDbSpline
 70
8
 71
3
 72
8
 73
4
 74
0
 40
0
 40
0
 40
0
 40
0
 40
1
 40
1
 40
1
 40
1
 10
175.737486
 20
133.017990
 30
0.0
 10
173.299086
 20
132.103590
 30
0.0
 10
170.623636
 20
131.645980
 30
0.0
 10
167.711106
 20
131.645980
 30
0.0
  0
SPLINE
  5
186
100
AcDbEntity
  8
Camada_1
 62
7
100
AcDbSpline
 70
8
 71
3
 72
8
 73
4
 74
0
 40
0
 40
0
 40
0
 40
0
 40
1
 40
1
 40
1
 40
1
 10
167.711106
 20
131.645980
 30
0.0
 10
165.996806
 20
131.645980
 30
0.0
 10
164.354446
 20
131.808480
 30
0.0
 10
162.784276
 20
132.132770
 30
0.0
  0
SPLINE
  5
187
100
AcDbEntity
  8
Camada_1
 62
7
100
AcDbSpline
 70
8
 71
3
 72
8
 73
4
 74
0
 40
0
 40
0
 40
0
 40
0
 40
1
 40
1
 40
1
 40
1
 10
162.784276
 20
132.132770
 30
0.0
 10
164.083666
 20
130.786470
 30
0.0
 10
165.285707
 20
129.625380
 30
0.0
 10
166.390256
 20
128.649260
 30
0.0
  0
SPLINE
  5
188
100
AcDbEntity
  8
Camada_1
 62
7
100
AcDbSpline
 70
8
 71
3
 72
8
 73
4
 74
0
 40
0
 40
0
 40
0
 40
0
 40
1
 40
1
 40
1
 40
1
 10
166.390256
 20
128.649260
 30
0.0
 10
167.846526
 20
127.328460
 30
0.0
 10
169.235096
 20
126.295290
 30
0.0
 10
170.555896
 20
125.550220
 30
0.0
  0
SPLINE
  5
189
100
AcDbEntity
  8
Camada_1
 62
7
100
AcDbSpline
 70
8
 71
3
 72
8
 73
4
 74
0
 40
0
 40
0
 40
0
 40
0
 40
1
 40
1
 40
1
 40
1
 10
170.555896
 20
125.550220
 30
0.0
 10
171.910556
 20
124.805160
 30
0.0
 10
173.299126
 20
124.280440
 30
0.0
 10
174.721526
 20
123.975640
 30
0.0
  0
SPLINE
  5
18a
100
AcDbEntity
  8
Camada_1
 62
7
100
AcDbSpline
 70
8
 71
3
 72
8
 73
4
 74
0
 40
0
 40
0
 40
0
 40
0
 40
1
 40
1
 40
1
 40
1
 10
174.721526
 20
123.975640
 30
0.0
 10
176.143926
 20
123.636980
 30
0.0
 10
177.684516
 20
123.467660
 30
0.0
 10
179.343986
 20
123.467660
 30
0.0
  0
SPLINE
  5
18b
100
AcDbEntity
  8
Camada_1
 62
7
100
AcDbSpline
 70
8
 71
3
 72
8
 73
4
 74
0
 40
0
 40
0
 40
0
 40
0
 40
1
 40
1
 40
1
 40
1
 10
179.343986
 20
123.467660
 30
0.0
 10
183.712786
 20
123.467660
 30
0.0
 10
187.167176
 20
124.974700
 30
0.0
 10
189.707176
 20
127.988840
 30
0.0
  0
LWPOLYLINE
  5
18c
100
AcDbEntity
  8
Camada_1
 62
7
100
AcDbPolyline
 90
1
 70
1
 10
187.403446
 20
154.088020
 30
0.0
  0
SPLINE
  5
18d
100
AcDbEntity
  8
Camada_1
 62
7
100
AcDbSpline
 70
8
 71
3
 72
8
 73
4
 74
0
 40
0
 40
0
 40
0
 40
0
 40
1
 40
1
 40
1
 40
1
 10
184.525586
 20
134.084590
 30
0.0
 10
183.001586
 20
132.560590
 30
0.0
 10
181.359306
 20
131.798420
 30
0.0
 10
179.598236
 20
131.798420
 30
0.0
  0
SPLINE
  5
18e
100
AcDbEntity
  8
Camada_1
 62
7
100
AcDbSpline
 70
8
 71
3
 72
8
 73
4
 74
0
 40
0
 40
0
 40
0
 40
0
 40
1
 40
1
 40
1
 40
1
 10
179.598236
 20
131.798420
 30
0.0
 10
178.887036
 20
131.798420
 30
0.0
 10
178.243336
 20
131.934180
 30
0.0
 10
177.667606
 20
132.205120
 30
0.0
  0
SPLINE
  5
18f
100
AcDbEntity
  8
Camada_1
 62
7
100
AcDbSpline
 70
8
 71
3
 72
8
 73
4
 74
0
 40
0
 40
0
 40
0
 40
0
 40
1
 40
1
 40
1
 40
1
 10
177.667606
 20
132.205120
 30
0.0
 10
177.232686
 20
132.422570
 30
0.0
 10
176.786946
 20
132.770750
 30
0.0
 10
176.330216
 20
133.250010
 30
0.0
  0
LWPOLYLINE
  5
190
100
AcDbEntity
  8
Camada_1
 62
7
100
AcDbPolyline
 90
2
 70
0
 10
189.707176
 20
127.988840
 30
0.0
 10
184.525586
 20
134.084590
 30
0.0
  0
LWPOLYLINE
  5
191
100
AcDbEntity
  8
Camada_1
 62
7
100
AcDbPolyline
 90
1
 70
1
 10
176.330216
 20
133.250010
 30
0.0
  0
LWPOLYLINE
  5
192
100
AcDbEntity
  8
Camada_1
 62
7
100
AcDbPolyline
 90
8
 70
1
 10
46.653191
 20
177.691410
 30
0.0
 10
55.875357
 20
194.699730
 30
0.0
 10
62.867326
 20
194.699730
 30
0.0
 10
72.089493
 20
177.691410
 30
0.0
 10
64.735870
 20
177.691410
 30
0.0
 10
57.924727
 20
191.978400
 30
0.0
 10
60.697405
 20
191.978400
 30
0.0
 10
53.886262
 20
177.691410
 30
0.0
  0
LWPOLYLINE
  5
193
100
AcDbEntity
  8
Camada_1
 62
7
100
AcDbPolyline
 90
4
 70
1
 10
52.138271
 20
180.655710
 30
0.0
 10
53.946538
 20
184.786310
 30
0.0
 10
63.650909
 20
184.786310
 30
0.0
 10
65.459177
 20
180.655710
 30
0.0
  0
SPLINE
  5
194
100
AcDbEntity
  8
Camada_1
 62
7
100
AcDbSpline
 70
8
 71
3
 72
8
 73
4
 74
0
 40
0
 40
0
 40
0
 40
0
 40
1
 40
1
 40
1
 40
1
 10
83.089783
 20
194.699730
 30
0.0
 10
86.324575
 20
194.699730
 30
0.0
 10
88.785827
 20
194.124687
 30
0.0
 10
90.473541
 20
192.974600
 30
0.0
  0
SPLINE
  5
195
100
AcDbEntity
  8
Camada_1
 62
7
100
AcDbSpline
 70
8
 71
3
 72
8
 73
4
 74
0
 40
0
 40
0
 40
0
 40
0
 40
1
 40
1
 40
1
 40
1
 10
90.473541
 20
192.974600
 30
0.0
 10
92.161261
 20
191.824513
 30
0.0
 10
93.005120
 20
190.261367
 30
0.0
 10
93.005120
 20
188.285160
 30
0.0
  0
SPLINE
  5
196
100
AcDbEntity
  8
Camada_1
 62
7
100
AcDbSpline
 70
8
 71
3
 72
8
 73
4
 74
0
 40
0
 40
0
 40
0
 40
0
 40
1
 40
1
 40
1
 40
1
 10
93.005120
 20
188.285160
 30
0.0
 10
93.005120
 20
186.973093
 30
0.0
 10
92.613327
 20
185.839207
 30
0.0
 10
91.829741
 20
184.883500
 30
0.0
  0
SPLINE
  5
197
100
AcDbEntity
  8
Camada_1
 62
7
100
AcDbSpline
 70
8
 71
3
 72
8
 73
4
 74
0
 40
0
 40
0
 40
0
 40
0
 40
1
 40
1
 40
1
 40
1
 10
91.829741
 20
184.883500
 30
0.0
 10
91.046161
 20
183.943993
 30
0.0
 10
89.931064
 20
183.223163
 30
0.0
 10
88.484450
 20
182.721010
 30
0.0
  0
SPLINE
  5
198
100
AcDbEntity
  8
Camada_1
 62
7
100
AcDbSpline
 70
8
 71
3
 72
8
 73
4
 74
0
 40
0
 40
0
 40
0
 40
0
 40
1
 40
1
 40
1
 40
1
 10
88.484450
 20
182.721010
 30
0.0
 10
87.057925
 20
182.218863
 30
0.0
 10
85.360162
 20
181.967790
 30
0.0
 10
83.391161
 20
181.967790
 30
0.0
  0
LWPOLYLINE
  5
199
100
AcDbEntity
  8
Camada_1
 62
7
100
AcDbPolyline
 90
3
 70
0
 10
73.234723
 20
177.691410
 30
0.0
 10
73.234723
 20
194.699730
 30
0.0
 10
83.089783
 20
194.699730
 30
0.0
  0
LWPOLYLINE
  5
19a
100
AcDbEntity
  8
Camada_1
 62
7
100
AcDbPolyline
 90
5
 70
0
 10
83.391161
 20
181.967790
 30
0.0
 10
77.182775
 20
181.967790
 30
0.0
 10
80.347244
 20
184.324650
 30
0.0
 10
80.347244
 20
177.691410
 30
0.0
 10
73.234723
 20
177.691410
 30
0.0
  0
LWPOLYLINE
  5
19b
100
AcDbEntity
  8
Camada_1
 62
7
100
AcDbPolyline
 90
4
 70
1
 10
85.862463
 20
177.691410
 30
0.0
 10
80.678760
 20
183.887300
 30
0.0
 10
88.213211
 20
183.887300
 30
0.0
 10
93.457191
 20
177.691410
 30
0.0
  0
SPLINE
  5
19c
100
AcDbEntity
  8
Camada_1
 62
7
100
AcDbSpline
 70
8
 71
3
 72
8
 73
4
 74
0
 40
0
 40
0
 40
0
 40
0
 40
1
 40
1
 40
1
 40
1
 10
82.939094
 20
186.292760
 30
0.0
 10
83.923594
 20
186.292760
 30
0.0
 10
84.646900
 20
186.470943
 30
0.0
 10
85.109012
 20
186.827310
 30
0.0
  0
SPLINE
  5
19d
100
AcDbEntity
  8
Camada_1
 62
7
100
AcDbSpline
 70
8
 71
3
 72
8
 73
4
 74
0
 40
0
 40
0
 40
0
 40
0
 40
1
 40
1
 40
1
 40
1
 10
85.109012
 20
186.827310
 30
0.0
 10
85.591219
 20
187.183677
 30
0.0
 10
85.832322
 20
187.669627
 30
0.0
 10
85.832322
 20
188.285160
 30
0.0
  0
SPLINE
  5
19e
100
AcDbEntity
  8
Camada_1
 62
7
100
AcDbSpline
 70
8
 71
3
 72
8
 73
4
 74
0
 40
0
 40
0
 40
0
 40
0
 40
1
 40
1
 40
1
 40
1
 10
85.832322
 20
188.285160
 30
0.0
 10
85.832322
 20
188.900700
 30
0.0
 10
85.591219
 20
189.386653
 30
0.0
 10
85.109012
 20
189.743020
 30
0.0
  0
SPLINE
  5
19f
100
AcDbEntity
  8
Camada_1
 62
7
100
AcDbSpline
 70
8
 71
3
 72
8
 73
4
 74
0
 40
0
 40
0
 40
0
 40
0
 40
1
 40
1
 40
1
 40
1
 10
85.109012
 20
189.743020
 30
0.0
 10
84.646900
 20
190.099387
 30
0.0
 10
83.923594
 20
190.277570
 30
0.0
 10
82.939094
 20
190.277570
 30
0.0
  0
LWPOLYLINE
  5
1a0
100
AcDbEntity
  8
Camada_1
 62
7
100
AcDbPolyline
 90
3
 70
0
 10
80.347245
 20
183.692920
 30
0.0
 10
77.182776
 20
186.292760
 30
0.0
 10
82.939094
 20
186.292760
 30
0.0
  0
LWPOLYLINE
  5
1a1
100
AcDbEntity
  8
Camada_1
 62
7
100
AcDbPolyline
 90
4
 70
0
 10
82.939094
 20
190.277570
 30
0.0
 10
77.182776
 20
190.277570
 30
0.0
 10
80.347245
 20
192.877410
 30
0.0
 10
80.347245
 20
183.692920
 30
0.0
  0
LWPOLYLINE
  5
1a2
100
AcDbEntity
  8
Camada_1
 62
7
100
AcDbPolyline
 90
8
 70
1
 10
95.687410
 20
177.691410
 30
0.0
 10
95.687410
 20
194.699730
 30
0.0
 10
112.835816
 20
194.699730
 30
0.0
 10
112.835816
 20
190.374760
 30
0.0
 10
102.679376
 20
190.374760
 30
0.0
 10
102.679376
 20
182.016380
 30
0.0
 10
113.227606
 20
182.016380
 30
0.0
 10
113.227606
 20
177.691410
 30
0.0
  0
LWPOLYLINE
  5
1a3
100
AcDbEntity
  8
Camada_1
 62
7
100
AcDbPolyline
 90
4
 70
1
 10
102.197176
 20
184.251760
 30
0.0
 10
102.197176
 20
188.382360
 30
0.0
 10
111.600166
 20
188.382360
 30
0.0
 10
111.600166
 20
184.251760
 30
0.0
  0
LWPOLYLINE
  5
1a4
100
AcDbEntity
  8
Camada_1
 62
7
100
AcDbPolyline
 90
12
 70
1
 10
115.970156
 20
177.691410
 30
0.0
 10
115.970156
 20
194.699730
 30
0.0
 10
121.816896
 20
194.699730
 30
0.0
 10
132.545947
 20
184.348950
 30
0.0
 10
129.833547
 20
184.348950
 30
0.0
 10
129.833547
 20
194.699730
 30
0.0
 10
136.765237
 20
194.699730
 30
0.0
 10
136.765237
 20
177.691410
 30
0.0
 10
130.918507
 20
177.691410
 30
0.0
 10
120.189446
 20
188.042190
 30
0.0
 10
122.901856
 20
188.042190
 30
0.0
 10
122.901856
 20
177.691410
 30
0.0
  0
LWPOLYLINE
  5
1a5
100
AcDbEntity
  8
Camada_1
 62
7
100
AcDbPolyline
 90
8
 70
1
 10
137.910496
 20
177.691410
 30
0.0
 10
147.132656
 20
194.699730
 30
0.0
 10
154.124627
 20
194.699730
 30
0.0
 10
163.346797
 20
177.691410
 30
0.0
 10
155.993177
 20
177.691410
 30
0.0
 10
149.182027
 20
191.978400
 30
0.0
 10
151.954707
 20
191.978400
 30
0.0
 10
145.143567
 20
177.691410
 30
0.0
  0
LWPOLYLINE
  5
1a6
100
AcDbEntity
  8
Camada_1
 62
7
100
AcDbPolyline
 90
4
 70
1
 10
143.395577
 20
180.655710
 30
0.0
 10
145.203836
 20
184.786310
 30
0.0
 10
154.908216
 20
184.786310
 30
0.0
 10
156.716476
 20
180.655710
 30
0.0
  0
LWPOLYLINE
  5
1a7
100
AcDbEntity
  8
Camada_1
 62
7
100
AcDbPolyline
 90
8
 70
1
 10
334.507379
 20
-81.007380
 30
0.0
 10
105.000000
 20
-176.072450
 30
0.0
 10
-124.507380
 20
-81.007380
 30
0.0
 10
-219.572450
 20
148.500000
 30
0.0
 10
-124.507380
 20
378.007380
 30
0.0
 10
105.000000
 20
473.072450
 30
0.0
 10
334.507378
 20
378.007380
 30
0.0
 10
429.572450
 20
148.500000
 30
0.0
  0
LWPOLYLINE
  5
1a8
100
AcDbEntity
  8
Camada_1
 62
7
100
AcDbPolyline
 90
8
 70
1
 10
104.999574
 20
448.899639
 30
0.0
 10
-107.414853
 20
360.914987
 30
0.0
 10
-195.399505
 20
148.500560
 30
0.0
 10
-107.414853
 20
-63.913876
 30
0.0
 10
104.999574
 20
-151.898519
 30
0.0
 10
317.414006
 20
-63.913876
 30
0.0
 10
405.398653
 20
148.500560
 30
0.0
 10
317.414006
 20
360.914987
 30
0.0
  0
LWPOLYLINE
  5
1a9
100
AcDbEntity
  8
Camada_1
 62
7
100
AcDbPolyline
 90
8
 70
1
 10
104.999574
 20
445.624039
 30
0.0
 10
315.098432
 20
358.597622
 30
0.0
 10
402.123053
 20
148.500560
 30
0.0
 10
315.096634
 20
-61.600092
 30
0.0
 10
104.999574
 20
-148.622919
 30
0.0
 10
-105.097488
 20
-61.598297
 30
0.0
 10
-192.123905
 20
148.500560
 30
0.0
 10
-105.097488
 20
358.597622
 30
0.0
  0
LWPOLYLINE
  5
1aa
100
AcDbEntity
  8
Camada_1
 62
7
100
AcDbPolyline
 90
6
 70
1
 10
-66.481916
 20
336.330690
 30
0.0
 10
-53.415509
 20
289.115840
 30
0.0
 10
-48.362775
 20
299.121700
 30
0.0
 10
-26.011212
 20
283.318970
 30
0.0
 10
-39.077619
 20
330.535770
 30
0.0
 10
-44.130353
 20
320.529910
 30
0.0
  0
LWPOLYLINE
  5
1ab
100
AcDbEntity
  8
Camada_1
 62
7
100
AcDbPolyline
 90
6
 70
1
 10
-63.229962
 20
331.705690
 30
0.0
 10
-43.427228
 20
317.705690
 30
0.0
 10
-39.597150
 20
325.289670
 30
0.0
 10
-29.263166
 20
287.945920
 30
0.0
 10
-49.065900
 20
301.945920
 30
0.0
 10
-52.897931
 20
294.359980
 30
0.0
  0
LWPOLYLINE
  5
1ac
100
AcDbEntity
  8
Camada_1
 62
7
100
AcDbPolyline
 90
6
 70
1
 10
222.773940
 20
24.656860
 30
0.0
 10
235.838400
 20
-22.559940
 30
0.0
 10
240.893080
 20
-12.554080
 30
0.0
 10
263.244650
 20
-28.354860
 30
0.0
 10
250.178240
 20
18.859980
 30
0.0
 10
245.125510
 20
8.854120
 30
0.0
  0
LWPOLYLINE
  5
1ad
100
AcDbEntity
  8
Camada_1
 62
7
100
AcDbPolyline
 90
6
 70
1
 10
226.025900
 20
20.029910
 30
0.0
 10
245.828630
 20
6.029910
 30
0.0
 10
249.658710
 20
13.615840
 30
0.0
 10
259.992690
 20
-23.729860
 30
0.0
 10
240.189960
 20
-9.729860
 30
0.0
 10
236.357930
 20
-17.313840
 30
0.0
  0
LWPOLYLINE
  5
1ae
100
AcDbEntity
  8
Camada_1
 62
7
100
AcDbPolyline
 90
6
 70
1
 10
276.482930
 20
337.707640
 30
0.0
 10
254.131370
 20
321.906860
 30
0.0
 10
249.076680
 20
331.912720
 30
0.0
 10
236.010270
 20
284.697870
 30
0.0
 10
258.363790
 20
300.500610
 30
0.0
 10
263.416520
 20
290.492800
 30
0.0
  0
LWPOLYLINE
  5
1af
100
AcDbEntity
  8
Camada_1
 62
7
100
AcDbPolyline
 90
6
 70
1
 10
273.230970
 20
333.082640
 30
0.0
 10
262.896990
 20
295.738890
 30
0.0
 10
259.066910
 20
303.322870
 30
0.0
 10
239.260270
 20
289.320920
 30
0.0
 10
249.596210
 20
326.668580
 30
0.0
 10
253.428240
 20
319.082640
 30
0.0
  0
LWPOLYLINE
  5
1b0
100
AcDbEntity
  8
Camada_1
 62
7
100
AcDbPolyline
 90
6
 70
1
 10
-26.011212
 20
12.303340
 30
0.0
 10
-48.362775
 20
-3.499390
 30
0.0
 10
-53.415509
 20
6.506470
 30
0.0
 10
-66.481916
 20
-40.708380
 30
0.0
 10
-44.130353
 20
-24.907590
 30
0.0
 10
-39.077619
 20
-34.913450
 30
0.0
  0
LWPOLYLINE
  5
1b1
100
AcDbEntity
  8
Camada_1
 62
7
100
AcDbPolyline
 90
6
 70
1
 10
-29.263166
 20
7.676390
 30
0.0
 10
-39.597150
 20
-29.667360
 30
0.0
 10
-43.427228
 20
-22.083380
 30
0.0
 10
-63.229962
 20
-36.083380
 30
0.0
 10
-52.895978
 20
1.262330
 30
0.0
 10
-49.065900
 20
-6.323610
 30
0.0
  0
ENDSEC
  0
SECTION
  2
OBJECTS
  0
DICTIONARY
  5
C
330
0
100
AcDbDictionary
  3
ACAD_GROUP
350
D
  3
ACAD_MLINESTYLE
350
17
  0
DICTIONARY
  5
D
330
C
100
AcDbDictionary
  0
DICTIONARY
  5
1A
330
C
100
AcDbDictionary
  0
DICTIONARY
  5
17
330
C
100
AcDbDictionary
  3
STANDARD
350
18
  0
DICTIONARY
  5
19
330
C
100
AcDbDictionary
  0
ENDSEC
  0
EOF
