<?xml version="1.0" encoding="UTF-8" standalone="no"?>
<!-- Created with Inkscape (http://www.inkscape.org/) -->

<svg
   width="650mm"
   height="650mm"
   viewBox="0 0 650 650"
   version="1.1"
   id="svg1"
   inkscape:version="1.4.3 (0d15f75, 2025-12-25)"
   sodipodi:docname="arena-tremeliques.svg"
   xmlns:inkscape="http://www.inkscape.org/namespaces/inkscape"
   xmlns:sodipodi="http://sodipodi.sourceforge.net/DTD/sodipodi-0.dtd"
   xmlns="http://www.w3.org/2000/svg"
   xmlns:svg="http://www.w3.org/2000/svg">
  <sodipodi:namedview
     id="namedview1"
     pagecolor="#ffffff"
     bordercolor="#000000"
     borderopacity="0.25"
     inkscape:showpageshadow="2"
     inkscape:pageopacity="0.0"
     inkscape:pagecheckerboard="0"
     inkscape:deskcolor="#d1d1d1"
     inkscape:document-units="mm"
     inkscape:zoom="0.64542298"
     inkscape:cx="1114.7728"
     inkscape:cy="1161.254"
     inkscape:window-width="2736"
     inkscape:window-height="1730"
     inkscape:window-x="-11"
     inkscape:window-y="-11"
     inkscape:window-maximized="1"
     inkscape:current-layer="layer1"
     showguides="true">
    <inkscape:page
       x="0"
       y="0"
       width="650"
       height="650"
       id="page1"
       margin="0"
       bleed="0" />
  </sodipodi:namedview>
  <defs
     id="defs1" />
  <g
     inkscape:label="Camada 1"
     inkscape:groupmode="layer"
     id="layer1"
     transform="translate(219.71586,176.21584)">
    <path
       style="baseline-shift:baseline;display:inline;overflow:visible;vector-effect:none;fill:#000000;stroke:none;stroke-width:1.90166;stroke-dasharray:none;stroke-opacity:1;enable-background:accumulate;stop-color:#000000"
       d="m 223.16116,284.34068 13.07589,47.25811 5.0591,-10.01461 22.37113,15.8146 -13.07784,-47.25615 -5.05715,10.01461 z m 3.25481,4.631 19.82005,14.01225 3.83344,-7.59257 10.34302,37.37838 -19.82006,-14.01225 -3.83538,7.59061 z"
       id="path64-2" />
    <path
       style="baseline-shift:baseline;display:inline;overflow:visible;vector-effect:none;fill:#000000;stroke:none;stroke-width:1.90166;stroke-dasharray:none;stroke-opacity:1;enable-background:accumulate;stop-color:#000000"
       d="m -25.841684,285.10007 -22.371122,15.81656 -5.057155,-10.01462 -13.07784,47.25617 22.371121,-15.81462 5.057155,10.01462 z m -3.2548,4.631 -10.343026,37.37643 -3.83343,-7.59062 -19.820062,14.01225 10.343027,-37.37839 3.833429,7.59258 z"
       id="path64-1-2" />
    <g
       id="g62"
       transform="matrix(1.000875,0,0,1.000875,-181.39785,332.28762)">
      <path
         d="m 315.81948,-186.11939 11.98842,-0.37155 v -15.29881 h -11.98842 z"
         style="font-weight:900;font-size:50.8px;font-family:Montserrat;-inkscape-font-specification:'Montserrat Heavy';stroke-width:0.265"
         id="path60" />
      <path
         d="m 284.47566,-185.14839 11.98893,-0.37155 v -16.26981 h -11.98893 z"
         style="font-weight:900;font-size:50.8px;font-family:Montserrat;-inkscape-font-specification:'Montserrat Heavy';stroke-width:0.265"
         id="path58" />
      <path
         id="path56"
         style="font-weight:900;font-size:50.8px;font-family:Montserrat;-inkscape-font-specification:'Montserrat Heavy';stroke-width:0.265"
         d="m 250.28705,-201.78975 v 17.70124 l 10.97297,-0.34003 0.81287,-0.0253 15.03681,-0.46612 v -3.66179 h -15.03681 v -4.16564 h 17.11937 v -9.04234 z" />
      <path
         id="path50"
         style="font-weight:900;font-size:50.8px;font-family:Montserrat;-inkscape-font-specification:'Montserrat Heavy';stroke-width:0.265"
         d="m 201.82386,-201.78975 v 19.20296 l 10.29187,-0.31884 0.63046,-0.0196 10.29549,-0.31884 -11.36261,-18.54564 z m 32.71531,0 -11.0293,18.53117 9.972,-0.30903 0.68265,-0.0212 1.03508,-1.74202 h 5.1e-4 l -1.03508,1.74202 10.28103,-0.31885 -0.0517,-17.88211 z" />
      <path
         id="path39"
         style="font-weight:900;font-size:50.8px;font-family:Montserrat;-inkscape-font-specification:'Montserrat Heavy';stroke-width:0.265"
         d="m 167.63576,-201.78975 v 20.26285 l 10.97246,-0.34004 0.81287,-0.0253 15.03681,-0.46612 v -6.22339 h -15.03681 v -4.16564 h 17.11988 v -9.04234 z" />
      <path
         id="path34"
         style="font-weight:900;font-size:50.8px;font-family:Montserrat;-inkscape-font-specification:'Montserrat Heavy';stroke-width:0.265"
         d="m 129.78949,-201.78975 v 21.43538 l 10.13324,-0.31367 1.8557,-0.0579 19.39416,-0.601 c 1.29446,-1.9855 1.942,-4.33605 1.942,-7.05176 0,-4.13174 -1.42264,-7.40004 -4.26744,-9.80457 -2.8448,-2.40454 -6.99322,-3.6065 -12.44575,-3.6065 z m 11.98894,9.24543 h 4.36872 c 1.65947,0 2.87873,0.37269 3.65766,1.11776 0.8128,0.74507 1.21905,1.76094 1.21905,3.04788 0,1.28693 -0.40625,2.30281 -1.21905,3.04787 -0.77893,0.74507 -1.99819,1.11776 -3.65766,1.11776 h -4.36872 z" />
      <path
         d="m 104.28821,-179.56372 11.98841,-0.37155 v -12.55789 h 10.41435 v -9.29659 H 93.873857 v 9.29659 h 10.414353 z"
         style="font-weight:900;font-size:50.8px;font-family:Montserrat;-inkscape-font-specification:'Montserrat Heavy';stroke-width:0.265"
         id="path22" />
      <path
         d="m 449.02169,-190.24782 11.96619,-0.37104 c -0.0897,-0.18655 -0.13436,-0.38817 -0.13436,-0.60461 0,-0.4064 0.13525,-0.77909 0.40618,-1.11776 0.3048,-0.33867 0.79596,-0.60915 1.4733,-0.81235 0.67733,-0.2032 1.59151,-0.3049 2.74298,-0.3049 1.55787,0 3.14982,0.22016 4.77542,0.66043 1.50968,0.40053 3.06125,0.98331 4.65501,1.74821 l 0.58033,-0.0181 3.50211,-8.43566 c -1.86267,-1.04987 -3.96256,-1.82881 -6.29936,-2.33681 -2.3368,-0.508 -4.70717,-0.76223 -7.11171,-0.76223 -3.6576,0 -6.72252,0.54201 -9.19478,1.62574 -2.4384,1.08373 -4.28407,2.53993 -5.53713,4.36873 -1.2192,1.79493 -1.82883,3.79313 -1.82883,5.99446 0,0.12335 0.002,0.2451 0.005,0.36587 z"
         style="font-weight:900;font-size:50.8px;font-family:Montserrat;-inkscape-font-specification:'Montserrat Heavy';stroke-width:0.265"
         id="path18" />
      <path
         d="m 416.50481,-189.24013 11.78584,-0.36535 v -3.14193 h 17.11937 v -9.04234 h -28.90521 z"
         style="font-weight:900;font-size:50.8px;font-family:Montserrat;-inkscape-font-specification:'Montserrat Heavy';stroke-width:0.265"
         id="path14" />
      <path
         d="m 399.233,-188.70476 11.78532,-0.36535 v -12.71964 H 399.233 Z"
         style="font-weight:900;font-size:50.8px;font-family:Montserrat;-inkscape-font-specification:'Montserrat Heavy';stroke-width:0.265"
         id="path13" />
      <path
         d="m 376.37289,-187.99628 11.98893,-0.37155 v -13.42192 h -11.98893 z"
         style="font-weight:900;font-size:50.8px;font-family:Montserrat;-inkscape-font-specification:'Montserrat Heavy';stroke-width:0.265"
         id="path10" />
      <path
         d="m 352.2431,-202.60262 c -2.87867,0 -5.55412,0.45709 -8.02638,1.37149 -2.4384,0.9144 -4.55507,2.21857 -6.35,3.91191 -1.79494,1.65946 -3.2008,3.62359 -4.2168,5.89266 -0.65586,1.49265 -1.09263,3.09097 -1.31052,4.79506 l 12.30778,-0.38137 c 0.0676,-0.24187 0.14434,-0.47706 0.22996,-0.70539 0.4064,-1.1176 0.96518,-2.04908 1.67638,-2.79414 0.74507,-0.77894 1.59163,-1.37127 2.5399,-1.77767 0.98213,-0.4064 2.03208,-0.60978 3.14968,-0.60978 1.1176,0 2.15025,0.20338 3.09852,0.60978 0.98213,0.4064 1.82869,0.99873 2.53989,1.77767 0.74507,0.74506 1.32115,1.67654 1.72755,2.79414 0.0296,0.0788 0.0578,0.15829 0.0853,0.23875 l 12.24112,-0.37931 c -0.25398,-1.24979 -0.6372,-2.43888 -1.15032,-3.56774 -0.98213,-2.26907 -2.3707,-4.2332 -4.16564,-5.89266 -1.79493,-1.69334 -3.9116,-2.99751 -6.35,-3.91191 -2.4384,-0.9144 -5.11385,-1.37149 -8.02638,-1.37149 z"
         style="font-weight:900;font-size:50.8px;font-family:Montserrat;-inkscape-font-specification:'Montserrat Heavy';stroke-width:0.265"
         id="path3" />
      <path
         d="m 223.04168,-183.24411 0.23306,0.38034 0.23513,-0.39481 z"
         style="stroke-width:0.285247"
         id="path46" />
      <path
         d="m 475.48674,-191.06792 -0.57981,0.0181 c 0.15799,0.0758 0.31661,0.15366 0.47542,0.23306 z"
         style="stroke-width:0.285247"
         id="path21" />
      <g
         id="g61"
         transform="translate(-3.1009908,-1.0719018)">
        <path
           d="m 315.81948,-184.00271 v 19.88974 h 11.98842 v -20.26129 z"
           style="stroke-width:0.285247"
           id="path61" />
        <path
           d="m 284.47566,-183.03171 v 18.91874 h 28.0417 v -9.29659 h -16.05277 v -9.9937 z"
           style="stroke-width:0.285247"
           id="path59" />
        <path
           id="path57"
           style="stroke-width:0.285247"
           d="m 277.1097,-182.8033 -15.03681,0.46612 -0.81287,0.0253 -10.97297,0.34003 v 17.85886 h 29.56564 v -9.04234 h -17.7798 v -4.67362 h 15.03681 z" />
        <path
           id="path51"
           style="stroke-width:0.285247"
           d="m 244.44554,-181.79096 -10.28102,0.31885 -0.68265,0.0212 -9.972,0.30903 -0.23513,0.39481 -0.23306,-0.38034 -10.29549,0.31884 -0.63046,0.0196 -10.29187,0.31884 v 16.35714 h 10.92233 v -15.65847 l 7.72149,12.45815 h 5.2834 l 7.73699,-13.02039 0.0858,16.22071 h 10.92233 z" />
        <path
           id="path40"
           style="stroke-width:0.285247"
           d="m 194.4579,-180.2417 -15.03681,0.46612 -0.81287,0.0253 -10.97246,0.34004 v 15.29725 h 29.56564 v -9.04234 h -17.78031 v -4.67362 h 15.03681 z" />
        <path
           id="path32"
           style="stroke-width:0.285247"
           d="m 161.17259,-179.21024 -19.39416,0.601 -1.8557,0.0579 -10.13324,0.31367 v 14.12472 h 11.98894 v -8.94105 h 3.26543 l 6.03116,8.94105 h 12.80128 l -7.46776,-10.94403 c 1.99895,-1.01725 3.57409,-2.38149 4.72478,-4.09278 0.0132,-0.02 0.0262,-0.0404 0.0393,-0.0605 z" />
        <path
           d="m 104.28821,-177.44704 v 13.33407 h 11.98841 v -13.70562 z"
           style="stroke-width:0.285247"
           id="path23" />
        <path
           d="m 449.02169,-188.13114 c 0.0433,1.73612 0.397,3.2058 1.06195,4.40903 0.7112,1.25307 1.64268,2.26946 2.79414,3.0484 1.18534,0.77893 2.47222,1.40534 3.86075,1.87947 1.4224,0.47413 2.82775,0.8636 4.21628,1.1684 1.38853,0.27094 2.65864,0.54194 3.8101,0.81287 1.18534,0.23707 2.13359,0.54163 2.84479,0.91416 0.7112,0.37253 1.0666,0.88047 1.0666,1.52394 0,0.4064 -0.15202,0.76232 -0.45682,1.06712 -0.3048,0.27093 -0.79596,0.49109 -1.47329,0.66042 -0.64347,0.13547 -1.54088,0.20309 -2.69234,0.20309 -1.96427,0 -3.99654,-0.28778 -6.09627,-0.86351 -2.06587,-0.6096 -3.94509,-1.40584 -5.63842,-2.38797 l -3.86126,8.73797 c 1.79493,1.08373 4.08091,1.96384 6.85798,2.64118 2.77706,0.67733 5.6559,1.01647 8.63616,1.01647 3.69147,0 6.75639,-0.542 9.19479,-1.62574 2.4384,-1.1176 4.26729,-2.57379 5.48649,-4.36872 1.25306,-1.8288 1.87947,-3.827 1.87947,-5.99447 0,-1.86267 -0.3554,-3.42055 -1.0666,-4.67362 -0.7112,-1.25306 -1.65946,-2.26894 -2.84479,-3.04787 -1.15147,-0.77893 -2.42157,-1.40586 -3.8101,-1.87999 -1.38854,-0.47413 -2.79388,-0.84631 -4.21628,-1.11724 -1.38854,-0.27094 -2.67542,-0.52517 -3.86075,-0.76223 -1.15147,-0.23707 -2.08294,-0.52485 -2.79414,-0.86351 -0.4585,-0.24017 -0.76933,-0.52948 -0.93225,-0.86817 0,0 0,-5.2e-4 0,-5.2e-4 z"
           style="stroke-width:0.285247"
           id="path19" />
        <path
           id="path17"
           style="stroke-width:0.285247"
           d="m 428.29065,-187.4888 -11.78584,0.36535 v 23.01048 h 29.56564 v -9.04234 h -17.7798 v -4.67362 h 15.03681 v -8.63616 h -15.03681 z" />
        <path
           d="m 376.37289,-185.8796 v 5.76451 c 0,5.31707 1.52382,9.44871 4.57182,12.39511 3.048,2.9464 7.29862,4.41988 12.75116,4.41988 5.45253,0 9.70264,-1.47348 12.75064,-4.41988 3.048,-2.9464 4.57181,-7.07804 4.57181,-12.39511 v -6.83834 l -11.78532,0.36535 v 6.11746 c 0,2.70933 -0.49117,4.63939 -1.4733,5.79086 -0.94827,1.1176 -2.26921,1.67638 -3.96255,1.67638 -1.65946,0 -2.9799,-0.55878 -3.96203,-1.67638 -0.98213,-1.15147 -1.4733,-3.08153 -1.4733,-5.79086 v -5.78053 z"
           style="stroke-width:0.285247"
           id="path11" />
        <path
           id="path6"
           style="stroke-width:0.285247"
           d="m 371.93544,-185.74214 -12.24112,0.37931 c 0.34942,1.02545 0.524,2.18204 0.524,3.46955 0,1.38854 -0.20286,2.64186 -0.60926,3.75946 -0.4064,1.08374 -0.98248,2.01521 -1.72755,2.79415 -0.7112,0.74506 -1.55776,1.32062 -2.53989,1.72702 -0.94827,0.4064 -1.98092,0.60927 -3.09852,0.60927 -1.1176,0 -2.16755,-0.20287 -3.14968,-0.60927 -0.94827,-0.4064 -1.79483,-0.98196 -2.5399,-1.72702 -0.7112,-0.77894 -1.26998,-1.71041 -1.67638,-2.79415 -0.4064,-1.1176 -0.60978,-2.37092 -0.60978,-3.75946 0,-1.09598 0.12663,-2.09682 0.37982,-3.00291 l -12.30778,0.38137 c -0.10838,0.84773 -0.16226,1.72149 -0.16226,2.62154 0,2.67547 0.49065,5.14805 1.47278,7.41712 1.016,2.26907 2.42186,4.24997 4.2168,5.94331 1.79493,1.65946 3.9116,2.94634 6.35,3.86074 0.99998,0.36986 2.03307,0.66496 3.09955,0.88522 -0.41375,-0.42869 -0.83722,-0.87581 -1.27073,-1.34204 l 12.39511,-3.04839 c 0.8128,1.25307 1.50683,2.21862 2.08256,2.89595 0.11364,0.13369 0.22668,0.25938 0.339,0.37724 2.19019,-0.89553 4.10942,-2.10523 5.75727,-3.62872 1.79494,-1.69334 3.18351,-3.67424 4.16564,-5.94331 1.016,-2.26907 1.52394,-4.74165 1.52394,-7.41712 0,-1.34102 -0.12472,-2.624 -0.37362,-3.84886 z m -11.07323,20.83801 c -0.19548,0.0799 -0.39293,0.1571 -0.59273,0.23202 -2.4384,0.9144 -5.11385,1.37201 -8.02638,1.37201 -1.7143,0 -3.35666,-0.1625 -4.92683,-0.48679 1.29939,1.3463 2.50143,2.50739 3.60598,3.48351 1.45627,1.3208 2.84484,2.35397 4.16564,3.09904 1.35466,0.74506 2.74323,1.26978 4.16563,1.57458 1.4224,0.33866 2.96299,0.50798 4.62246,0.50798 4.3688,0 7.82319,-1.50704 10.36319,-4.52118 l -5.18159,-6.09575 c -1.524,1.524 -3.16628,2.28617 -4.92735,2.28617 -0.7112,0 -1.3549,-0.13576 -1.93063,-0.4067 -0.43492,-0.21745 -0.88066,-0.56563 -1.33739,-1.04489 z" />
      </g>
    </g>
    <path
       id="text61"
       style="font-weight:900;font-size:50.8px;font-family:Montserrat;-inkscape-font-specification:'Montserrat Heavy';stroke-width:0.141287"
       d="m 56.116737,102.54418 -9.230246,17.02315 h 7.238962 l 1.414588,-2.96675 h 8.030303 l 1.414587,2.96675 h 7.35999 l -9.230245,-17.02315 z m 17.374336,0 v 17.02315 h 7.118968 v -4.27997 h 1.938528 l 3.581207,4.27997 h 7.601531 l -4.434097,-5.23889 c 1.186941,-0.48697 2.122124,-1.14 2.805382,-1.95921 0.784271,-0.95655 1.176151,-2.09162 1.176151,-3.40484 0,-1.97794 -0.844648,-3.54212 -2.533844,-4.69322 -1.689191,-1.1511 -4.152367,-1.72699 -7.38999,-1.72699 z m 22.47254,0 v 17.02315 h 17.555357 v -4.32858 h -10.55742 v -2.23749 h 8.92871 v -4.1341 h -8.92871 v -1.99388 h 10.16537 v -4.3291 z m 20.300227,0 v 17.02315 h 6.93795 v -7.74067 l 8.02357,7.74067 h 5.85179 v -17.02315 h -6.93794 v 7.74067 l -8.02358,-7.74067 z m 31.18971,0 -9.23025,17.02315 h 7.23948 l 1.41408,-2.96675 h 8.03082 l 1.41407,2.96675 h 7.35999 l -9.22973,-17.02315 z m -66.843509,4.42634 h 2.593841 c 0.985361,0 1.709275,0.17812 2.171793,0.53481 0.482628,0.35667 0.724103,0.84298 0.724103,1.45906 0,0.61607 -0.241475,1.10239 -0.724103,1.45907 -0.462518,0.35668 -1.186432,0.53532 -2.171793,0.53532 h -2.593841 z m 70.282479,1.2077 2.04405,4.28824 h -4.0886 z m -91.337328,5.2e-4 2.044557,4.28772 h -4.089114 z" />
    <path
       sodipodi:type="star"
       style="fill:none;stroke:#000000;stroke-width:0.264999;stroke-opacity:1"
       id="path63"
       inkscape:flatsided="true"
       sodipodi:sides="8"
       sodipodi:cx="-140.19876"
       sodipodi:cy="-573.09314"
       sodipodi:r1="324.57245"
       sodipodi:r2="299.86584"
       sodipodi:arg1="0.78539816"
       sodipodi:arg2="1.1780972"
       inkscape:rounded="0"
       inkscape:randomized="0"
       d="m 89.308619,-343.58576 -229.507379,95.06507 -229.50738,-95.06507 -95.06507,-229.50738 95.06507,-229.50738 229.50738,-95.06507 229.507378,95.06507 95.065072,229.50738 z"
       transform="matrix(1.000875,0,0,1.000875,245.60557,722.37875)" />
    <path
       style="baseline-shift:baseline;display:inline;overflow:visible;opacity:1;vector-effect:none;stroke-width:0.921282;enable-background:accumulate;stop-color:#000000;stop-opacity:1"
       d="m 105.28371,-151.87836 -212.6003,88.061639 -88.06164,212.600291 88.06164,212.60031 212.6003,88.06163 212.6003,-88.06163 88.06163,-212.60031 -88.06163,-212.600291 z m 0,3.27846 210.2827,87.102572 87.10077,210.280898 -87.10257,210.2845 -210.2809,87.09897 -210.2809,-87.10077 -87.10257,-210.2827 87.10257,-210.280898 z"
       id="path63-6" />
    <path
       style="baseline-shift:baseline;display:inline;overflow:visible;vector-effect:none;fill:#000000;stroke:none;stroke-width:1.90166;stroke-dasharray:none;stroke-opacity:1;enable-background:accumulate;stop-color:#000000"
       d="m -66.347801,-39.210812 13.07784,47.2561644 5.057155,-10.0146154 22.371122,15.816558 -13.077841,-47.258116 -5.057155,10.014615 z m 3.254799,4.629047 19.820062,14.012251 3.83343,-7.590617 10.343026,37.3764271 -19.820062,-14.0122503 -3.835384,7.5925778 z"
       id="path64" />
    <path
       style="baseline-shift:baseline;display:inline;overflow:visible;vector-effect:none;fill:#000000;stroke:none;stroke-width:1.90166;stroke-dasharray:none;stroke-opacity:1;enable-background:accumulate;stop-color:#000000"
       d="m 276.91715,-40.588967 -22.37112,15.814606 -5.05911,-10.014615 -13.07785,47.256164 22.37308,-15.8165676 5.05715,10.0165671 z m -3.25481,4.629047 -10.34302,37.3764271 -3.83343,-7.5906162 -19.82397,14.0142021 10.34498,-37.38034 3.83538,7.592578 z"
       id="path64-1" />
  </g>
</svg>
