999
"DXF R12 Output" (www.mydxf.blogspot.com)
 0 
SECTION
 2 
HEADER
 9 
$ACADVER
 1 
AC1009
 9 
$EXTMIN
 10 
 0 
 20 
 0 
 9 
$EXTMAX
 10 
 8.5 
 20 
 11 
 0 
ENDSEC
 0 
SECTION
 2 
ENTITIES
0
POLYLINE
8
Camada 1
62
7
70
0
10
0.000000
20
0.000000
66
1
0
VERTEX
8
Camada 1
10
442.877160
20
188.875320
70
0
0
VERTEX
8
Camada 1
10
455.953050
20
141.617210
70
0
0
VERTEX
8
Camada 1
10
461.012150
20
151.631820
70
0
0
VERTEX
8
Camada 1
10
483.383280
20
135.817220
70
0
0
VERTEX
8
Camada 1
10
470.305440
20
183.073370
70
0
0
VERTEX
8
Camada 1
10
465.248290
20
173.058760
70
0
0
VERTEX
8
Camada 1
10
442.877160
20
188.875320
70
0
0
SEQEND
8
Camada 1
0
POLYLINE
8
Camada 1
62
7
70
0
10
0.000000
20
0.000000
66
1
0
VERTEX
8
Camada 1
10
446.131970
20
184.244320
70
0
0
VERTEX
8
Camada 1
10
465.952020
20
170.232070
70
0
0
VERTEX
8
Camada 1
10
469.785460
20
177.824640
70
0
0
VERTEX
8
Camada 1
10
480.128480
20
140.446260
70
0
0
VERTEX
8
Camada 1
10
460.308420
20
154.458510
70
0
0
VERTEX
8
Camada 1
10
456.473040
20
146.867900
70
0
0
VERTEX
8
Camada 1
10
446.131970
20
184.244320
70
0
0
SEQEND
8
Camada 1
0
POLYLINE
8
Camada 1
62
7
70
0
10
0.000000
20
0.000000
66
1
0
VERTEX
8
Camada 1
10
193.874316
20
188.115930
70
0
0
VERTEX
8
Camada 1
10
171.503194
20
172.299370
70
0
0
VERTEX
8
Camada 1
10
166.446039
20
182.313990
70
0
0
VERTEX
8
Camada 1
10
153.368199
20
135.057820
70
0
0
VERTEX
8
Camada 1
10
175.739320
20
150.872440
70
0
0
VERTEX
8
Camada 1
10
180.796475
20
140.857820
70
0
0
VERTEX
8
Camada 1
10
193.874316
20
188.115930
70
0
0
SEQEND
8
Camada 1
0
POLYLINE
8
Camada 1
62
7
70
0
10
0.000000
20
0.000000
66
1
0
VERTEX
8
Camada 1
10
190.619516
20
183.484930
70
0
0
VERTEX
8
Camada 1
10
180.276490
20
146.108500
70
0
0
VERTEX
8
Camada 1
10
176.443060
20
153.699120
70
0
0
VERTEX
8
Camada 1
10
156.622998
20
139.686870
70
0
0
VERTEX
8
Camada 1
10
166.966025
20
177.065260
70
0
0
VERTEX
8
Camada 1
10
170.799454
20
169.472680
70
0
0
VERTEX
8
Camada 1
10
190.619516
20
183.484930
70
0
0
SEQEND
8
Camada 1
0
POLYLINE
8
Layer 1
62
7
70
0
10
0.000000
20
0.000000
66
1
0
VERTEX
8
Layer 1
10
354.412443
20
327.209314
70
0
0
VERTEX
8
Layer 1
10
366.411293
20
327.581187
70
0
0
VERTEX
8
Layer 1
10
366.411293
20
342.893307
70
0
0
VERTEX
8
Layer 1
10
354.412443
20
342.893307
70
0
0
VERTEX
8
Layer 1
10
354.412443
20
327.209314
70
0
0
SEQEND
8
Layer 1
0
POLYLINE
8
Layer 1
62
7
70
0
10
0.000000
20
0.000000
66
1
0
VERTEX
8
Layer 1
10
323.041154
20
326.237469
70
0
0
VERTEX
8
Layer 1
10
335.040514
20
326.609342
70
0
0
VERTEX
8
Layer 1
10
335.040514
20
342.893307
70
0
0
VERTEX
8
Layer 1
10
323.041154
20
342.893307
70
0
0
VERTEX
8
Layer 1
10
323.041154
20
326.237469
70
0
0
SEQEND
8
Layer 1
0
POLYLINE
8
Layer 1
62
7
70
0
10
0.000000
20
0.000000
66
1
0
VERTEX
8
Layer 1
10
288.822800
20
342.893307
70
0
0
VERTEX
8
Layer 1
10
288.822800
20
325.176667
70
0
0
VERTEX
8
Layer 1
10
299.805316
20
325.516993
70
0
0
VERTEX
8
Layer 1
10
300.618893
20
325.542315
70
0
0
VERTEX
8
Layer 1
10
315.668785
20
326.008840
70
0
0
VERTEX
8
Layer 1
10
315.668785
20
329.673816
70
0
0
VERTEX
8
Layer 1
10
300.618893
20
329.673816
70
0
0
VERTEX
8
Layer 1
10
300.618893
20
333.843080
70
0
0
VERTEX
8
Layer 1
10
317.753157
20
333.843080
70
0
0
VERTEX
8
Layer 1
10
317.753157
20
342.893287
70
0
0
VERTEX
8
Layer 1
10
288.822800
20
342.893307
70
0
0
SEQEND
8
Layer 1
0
POLYLINE
8
Layer 1
62
7
70
0
10
0.000000
20
0.000000
66
1
0
VERTEX
8
Layer 1
10
240.317447
20
342.893307
70
0
0
VERTEX
8
Layer 1
10
240.317447
20
323.673641
70
0
0
VERTEX
8
Layer 1
10
250.618271
20
323.992758
70
0
0
VERTEX
8
Layer 1
10
251.249279
20
324.012375
70
0
0
VERTEX
8
Layer 1
10
261.553726
20
324.331492
70
0
0
VERTEX
8
Layer 1
10
250.181231
20
342.893267
70
0
0
VERTEX
8
Layer 1
10
240.317447
20
342.893307
70
0
0
SEQEND
8
Layer 1
0
POLYLINE
8
Layer 1
62
7
70
0
10
0.000000
20
0.000000
66
1
0
VERTEX
8
Layer 1
10
273.061219
20
342.893307
70
0
0
VERTEX
8
Layer 1
10
262.022324
20
324.346015
70
0
0
VERTEX
8
Layer 1
10
272.002999
20
324.655314
70
0
0
VERTEX
8
Layer 1
10
272.686243
20
324.676532
70
0
0
VERTEX
8
Layer 1
10
273.722224
20
326.420068
70
0
0
VERTEX
8
Layer 1
10
273.722734
20
326.420068
70
0
0
VERTEX
8
Layer 1
10
272.686754
20
324.676532
70
0
0
VERTEX
8
Layer 1
10
282.976728
20
324.995660
70
0
0
VERTEX
8
Layer 1
10
282.924983
20
342.893327
70
0
0
VERTEX
8
Layer 1
10
273.061219
20
342.893307
70
0
0
SEQEND
8
Layer 1
0
POLYLINE
8
Layer 1
62
7
70
0
10
0.000000
20
0.000000
66
1
0
VERTEX
8
Layer 1
10
206.099603
20
342.893307
70
0
0
VERTEX
8
Layer 1
10
206.099603
20
322.612828
70
0
0
VERTEX
8
Layer 1
10
217.081609
20
322.953164
70
0
0
VERTEX
8
Layer 1
10
217.895186
20
322.978486
70
0
0
VERTEX
8
Layer 1
10
232.945078
20
323.445012
70
0
0
VERTEX
8
Layer 1
10
232.945078
20
329.673816
70
0
0
VERTEX
8
Layer 1
10
217.895186
20
329.673816
70
0
0
VERTEX
8
Layer 1
10
217.895186
20
333.843080
70
0
0
VERTEX
8
Layer 1
10
235.029961
20
333.843080
70
0
0
VERTEX
8
Layer 1
10
235.029961
20
342.893287
70
0
0
VERTEX
8
Layer 1
10
206.099603
20
342.893307
70
0
0
SEQEND
8
Layer 1
0
POLYLINE
8
Layer 1
62
7
70
0
10
0.000000
20
0.000000
66
1
0
VERTEX
8
Layer 1
10
168.220407
20
342.893307
70
0
0
VERTEX
8
Layer 1
10
168.220407
20
321.439278
70
0
0
VERTEX
8
Layer 1
10
178.362463
20
321.753221
70
0
0
VERTEX
8
Layer 1
10
180.219777
20
321.811172
70
0
0
VERTEX
8
Layer 1
10
199.630810
20
322.412694
70
0
0
VERTEX
8
Layer 1
10
200.481087
20
323.971623
70
0
0
VERTEX
8
Layer 1
10
201.088500
20
325.667575
70
0
0
VERTEX
8
Layer 1
10
201.452990
20
327.500560
70
0
0
VERTEX
8
Layer 1
10
201.574500
20
329.470589
70
0
0
VERTEX
8
Layer 1
10
201.307530
20
332.410049
70
0
0
VERTEX
8
Layer 1
10
200.973827
20
333.758243
70
0
0
VERTEX
8
Layer 1
10
200.506651
20
335.025407
70
0
0
VERTEX
8
Layer 1
10
199.906010
20
336.211537
70
0
0
VERTEX
8
Layer 1
10
199.171909
20
337.316630
70
0
0
VERTEX
8
Layer 1
10
198.304352
20
338.340682
70
0
0
VERTEX
8
Layer 1
10
197.303347
20
339.283689
70
0
0
VERTEX
8
Layer 1
10
196.174458
20
340.129758
70
0
0
VERTEX
8
Layer 1
10
194.923242
20
340.862993
70
0
0
VERTEX
8
Layer 1
10
192.053808
20
341.990995
70
0
0
VERTEX
8
Layer 1
10
188.694999
20
342.667754
70
0
0
VERTEX
8
Layer 1
10
184.846769
20
342.893327
70
0
0
VERTEX
8
Layer 1
10
168.220407
20
342.893307
70
0
0
SEQEND
8
Layer 1
0
POLYLINE
8
Layer 1
62
7
70
0
10
0.000000
20
0.000000
66
1
0
VERTEX
8
Layer 1
10
180.219777
20
333.639834
70
0
0
VERTEX
8
Layer 1
10
184.592298
20
333.639834
70
0
0
VERTEX
8
Layer 1
10
185.755370
20
333.569898
70
0
0
VERTEX
8
Layer 1
10
186.753209
20
333.360112
70
0
0
VERTEX
8
Layer 1
10
187.585803
20
333.010503
70
0
0
VERTEX
8
Layer 1
10
188.253140
20
332.521101
70
0
0
VERTEX
8
Layer 1
10
188.786981
20
331.910989
70
0
0
VERTEX
8
Layer 1
10
189.168261
20
331.199213
70
0
0
VERTEX
8
Layer 1
10
189.397008
20
330.385749
70
0
0
VERTEX
8
Layer 1
10
189.473251
20
329.470569
70
0
0
VERTEX
8
Layer 1
10
189.397008
20
328.555395
70
0
0
VERTEX
8
Layer 1
10
189.168261
20
327.741931
70
0
0
VERTEX
8
Layer 1
10
188.786981
20
327.030155
70
0
0
VERTEX
8
Layer 1
10
188.253140
20
326.420048
70
0
0
VERTEX
8
Layer 1
10
187.585803
20
325.930646
70
0
0
VERTEX
8
Layer 1
10
186.753209
20
325.581037
70
0
0
VERTEX
8
Layer 1
10
185.755370
20
325.371251
70
0
0
VERTEX
8
Layer 1
10
184.592298
20
325.301315
70
0
0
VERTEX
8
Layer 1
10
180.219777
20
325.301315
70
0
0
VERTEX
8
Layer 1
10
180.219777
20
333.639834
70
0
0
SEQEND
8
Layer 1
0
POLYLINE
8
Layer 1
62
7
70
0
10
0.000000
20
0.000000
66
1
0
VERTEX
8
Layer 1
10
142.696941
20
320.647940
70
0
0
VERTEX
8
Layer 1
10
154.695781
20
321.019814
70
0
0
VERTEX
8
Layer 1
10
154.695781
20
333.588629
70
0
0
VERTEX
8
Layer 1
10
165.119191
20
333.588629
70
0
0
VERTEX
8
Layer 1
10
165.119191
20
342.893307
70
0
0
VERTEX
8
Layer 1
10
132.273527
20
342.893307
70
0
0
VERTEX
8
Layer 1
10
132.273527
20
333.588629
70
0
0
VERTEX
8
Layer 1
10
142.696941
20
333.588629
70
0
0
VERTEX
8
Layer 1
10
142.696941
20
320.647940
70
0
0
SEQEND
8
Layer 1
0
POLYLINE
8
Layer 1
62
7
70
0
10
0.000000
20
0.000000
66
1
0
VERTEX
8
Layer 1
10
487.730339
20
331.341336
70
0
0
VERTEX
8
Layer 1
10
499.706939
20
331.712698
70
0
0
VERTEX
8
Layer 1
10
499.572463
20
332.317834
70
0
0
VERTEX
8
Layer 1
10
499.674042
20
332.902621
70
0
0
VERTEX
8
Layer 1
10
499.978996
20
333.436567
70
0
0
VERTEX
8
Layer 1
10
500.576463
20
333.893941
70
0
0
VERTEX
8
Layer 1
10
501.453578
20
334.249624
70
0
0
VERTEX
8
Layer 1
10
502.648304
20
334.478473
70
0
0
VERTEX
8
Layer 1
10
504.198944
20
334.554789
70
0
0
VERTEX
8
Layer 1
10
506.563311
20
334.389531
70
0
0
VERTEX
8
Layer 1
10
508.978519
20
333.893784
70
0
0
VERTEX
8
Layer 1
10
511.276491
20
333.155676
70
0
0
VERTEX
8
Layer 1
10
513.637579
20
332.144053
70
0
0
VERTEX
8
Layer 1
10
514.218413
20
332.162169
70
0
0
VERTEX
8
Layer 1
10
517.723570
20
340.605168
70
0
0
VERTEX
8
Layer 1
10
514.749104
20
341.977968
70
0
0
VERTEX
8
Layer 1
10
511.418730
20
342.944011
70
0
0
VERTEX
8
Layer 1
10
507.885206
20
343.516123
70
0
0
VERTEX
8
Layer 1
10
504.300833
20
343.706904
70
0
0
VERTEX
8
Layer 1
10
501.666470
20
343.605194
70
0
0
VERTEX
8
Layer 1
10
499.254554
20
343.300079
70
0
0
VERTEX
8
Layer 1
10
497.065082
20
342.791589
70
0
0
VERTEX
8
Layer 1
10
495.098053
20
342.079750
70
0
0
VERTEX
8
Layer 1
10
493.378894
20
341.196344
70
0
0
VERTEX
8
Layer 1
10
491.882190
20
340.173129
70
0
0
VERTEX
8
Layer 1
10
490.607931
20
339.010091
70
0
0
VERTEX
8
Layer 1
10
489.556106
20
337.707219
70
0
0
VERTEX
8
Layer 1
10
488.755305
20
336.321706
70
0
0
VERTEX
8
Layer 1
10
488.183298
20
334.859914
70
0
0
VERTEX
8
Layer 1
10
487.840089
20
333.321856
70
0
0
VERTEX
8
Layer 1
10
487.725685
20
331.707544
70
0
0
VERTEX
8
Layer 1
10
487.730689
20
331.341356
70
0
0
VERTEX
8
Layer 1
10
487.730339
20
331.341336
70
0
0
SEQEND
8
Layer 1
0
POLYLINE
8
Layer 1
62
7
70
0
10
0.000000
20
0.000000
66
1
0
VERTEX
8
Layer 1
10
455.185169
20
330.332769
70
0
0
VERTEX
8
Layer 1
10
466.981263
20
330.698437
70
0
0
VERTEX
8
Layer 1
10
466.981263
20
333.843100
70
0
0
VERTEX
8
Layer 1
10
484.115527
20
333.843100
70
0
0
VERTEX
8
Layer 1
10
484.115527
20
342.893307
70
0
0
VERTEX
8
Layer 1
10
455.185169
20
342.893307
70
0
0
VERTEX
8
Layer 1
10
455.185169
20
330.332769
70
0
0
SEQEND
8
Layer 1
0
POLYLINE
8
Layer 1
62
7
70
1
10
0.000000
20
0.000000
66
1
0
VERTEX
8
Layer 1
10
437.898333
20
329.796933
70
0
0
VERTEX
8
Layer 1
10
449.693906
20
330.162601
70
0
0
VERTEX
8
Layer 1
10
449.693906
20
342.893307
70
0
0
VERTEX
8
Layer 1
10
437.898333
20
342.893307
70
0
0
VERTEX
8
Layer 1
10
437.898333
20
329.796933
70
0
0
SEQEND
8
Layer 1
0
POLYLINE
8
Layer 1
62
7
70
0
10
0.000000
20
0.000000
66
1
0
VERTEX
8
Layer 1
10
415.018334
20
329.087837
70
0
0
VERTEX
8
Layer 1
10
427.017695
20
329.459710
70
0
0
VERTEX
8
Layer 1
10
427.017695
20
342.893307
70
0
0
VERTEX
8
Layer 1
10
415.018334
20
342.893307
70
0
0
VERTEX
8
Layer 1
10
415.018334
20
329.087837
70
0
0
SEQEND
8
Layer 1
0
POLYLINE
8
Layer 1
62
7
70
0
10
0.000000
20
0.000000
66
1
0
VERTEX
8
Layer 1
10
390.867551
20
343.706884
70
0
0
VERTEX
8
Layer 1
10
388.744807
20
343.621102
70
0
0
VERTEX
8
Layer 1
10
386.698334
20
343.363741
70
0
0
VERTEX
8
Layer 1
10
384.728128
20
342.934781
70
0
0
VERTEX
8
Layer 1
10
382.834189
20
342.334201
70
0
0
VERTEX
8
Layer 1
10
381.064175
20
341.574668
70
0
0
VERTEX
8
Layer 1
10
379.414915
20
340.668901
70
0
0
VERTEX
8
Layer 1
10
377.886411
20
339.616955
70
0
0
VERTEX
8
Layer 1
10
376.478664
20
338.418888
70
0
0
VERTEX
8
Layer 1
10
375.204316
20
337.116030
70
0
0
VERTEX
8
Layer 1
10
374.076073
20
335.698797
70
0
0
VERTEX
8
Layer 1
10
373.094009
20
334.167162
70
0
0
VERTEX
8
Layer 1
10
372.258195
20
332.521101
70
0
0
VERTEX
8
Layer 1
10
371.437984
20
330.200844
70
0
0
VERTEX
8
Layer 1
10
370.946535
20
327.721869
70
0
0
VERTEX
8
Layer 1
10
383.265023
20
328.103571
70
0
0
VERTEX
8
Layer 1
10
383.495183
20
328.809575
70
0
0
VERTEX
8
Layer 1
10
384.219703
20
330.347684
70
0
0
VERTEX
8
Layer 1
10
385.173022
20
331.606146
70
0
0
VERTEX
8
Layer 1
10
386.367810
20
332.635578
70
0
0
VERTEX
8
Layer 1
10
387.715131
20
333.385362
70
0
0
VERTEX
8
Layer 1
10
389.240496
20
333.843050
70
0
0
VERTEX
8
Layer 1
10
390.867551
20
333.995673
70
0
0
VERTEX
8
Layer 1
10
392.481713
20
333.843050
70
0
0
VERTEX
8
Layer 1
10
393.968767
20
333.385362
70
0
0
VERTEX
8
Layer 1
10
395.341504
20
332.635578
70
0
0
VERTEX
8
Layer 1
10
396.510867
20
331.606146
70
0
0
VERTEX
8
Layer 1
10
397.502505
20
330.347684
70
0
0
VERTEX
8
Layer 1
10
398.239920
20
328.809575
70
0
0
VERTEX
8
Layer 1
10
398.325294
20
328.570617
70
0
0
VERTEX
8
Layer 1
10
410.577064
20
328.950257
70
0
0
VERTEX
8
Layer 1
10
410.098666
20
330.781067
70
0
0
VERTEX
8
Layer 1
10
409.425743
20
332.521101
70
0
0
VERTEX
8
Layer 1
10
408.612232
20
334.167162
70
0
0
VERTEX
8
Layer 1
10
407.646180
20
335.698797
70
0
0
VERTEX
8
Layer 1
10
406.527593
20
337.116030
70
0
0
VERTEX
8
Layer 1
10
405.256479
20
338.418888
70
0
0
VERTEX
8
Layer 1
10
403.848732
20
339.616955
70
0
0
VERTEX
8
Layer 1
10
402.320228
20
340.668901
70
0
0
VERTEX
8
Layer 1
10
400.670969
20
341.574668
70
0
0
VERTEX
8
Layer 1
10
398.900954
20
342.334201
70
0
0
VERTEX
8
Layer 1
10
397.026077
20
342.934781
70
0
0
VERTEX
8
Layer 1
10
395.062226
20
343.363741
70
0
0
VERTEX
8
Layer 1
10
393.009399
20
343.621102
70
0
0
VERTEX
8
Layer 1
10
390.867592
20
343.706884
70
0
0
VERTEX
8
Layer 1
10
390.867551
20
343.706884
70
0
0
SEQEND
8
Layer 1
0
POLYLINE
8
Layer 1
62
7
70
0
10
0.000000
20
0.000000
66
1
0
VERTEX
8
Layer 1
10
261.553726
20
324.331532
70
0
0
VERTEX
8
Layer 1
10
261.786989
20
323.950861
70
0
0
VERTEX
8
Layer 1
10
262.022324
20
324.346015
70
0
0
VERTEX
8
Layer 1
10
261.553726
20
324.331532
70
0
0
SEQEND
8
Layer 1
0
POLYLINE
8
Layer 1
62
7
70
0
10
0.000000
20
0.000000
66
1
0
VERTEX
8
Layer 1
10
514.218413
20
332.162149
70
0
0
VERTEX
8
Layer 1
10
513.638099
20
332.144033
70
0
0
VERTEX
8
Layer 1
10
514.113933
20
331.910771
70
0
0
VERTEX
8
Layer 1
10
514.218413
20
332.162149
70
0
0
SEQEND
8
Layer 1
0
POLYLINE
8
Layer 1
62
7
70
0
10
0.000000
20
0.000000
66
1
0
VERTEX
8
Layer 1
10
351.308543
20
326.163792
70
0
0
VERTEX
8
Layer 1
10
351.308543
20
306.256748
70
0
0
VERTEX
8
Layer 1
10
363.307393
20
306.256748
70
0
0
VERTEX
8
Layer 1
10
363.307393
20
326.535666
70
0
0
VERTEX
8
Layer 1
10
351.308543
20
326.163792
70
0
0
SEQEND
8
Layer 1
0
POLYLINE
8
Layer 1
62
7
70
0
10
0.000000
20
0.000000
66
1
0
VERTEX
8
Layer 1
10
319.937454
20
325.191948
70
0
0
VERTEX
8
Layer 1
10
319.937454
20
306.256748
70
0
0
VERTEX
8
Layer 1
10
348.003550
20
306.256748
70
0
0
VERTEX
8
Layer 1
10
348.003550
20
315.561426
70
0
0
VERTEX
8
Layer 1
10
331.936814
20
315.561426
70
0
0
VERTEX
8
Layer 1
10
331.936814
20
325.563821
70
0
0
VERTEX
8
Layer 1
10
319.937454
20
325.191948
70
0
0
SEQEND
8
Layer 1
0
POLYLINE
8
Layer 1
62
7
70
0
10
0.000000
20
0.000000
66
1
0
VERTEX
8
Layer 1
10
312.565085
20
324.963339
70
0
0
VERTEX
8
Layer 1
10
297.515193
20
324.496813
70
0
0
VERTEX
8
Layer 1
10
296.701616
20
324.471491
70
0
0
VERTEX
8
Layer 1
10
285.719100
20
324.131166
70
0
0
VERTEX
8
Layer 1
10
285.719100
20
306.256768
70
0
0
VERTEX
8
Layer 1
10
315.310462
20
306.256768
70
0
0
VERTEX
8
Layer 1
10
315.310462
20
315.306975
70
0
0
VERTEX
8
Layer 1
10
297.515193
20
315.306975
70
0
0
VERTEX
8
Layer 1
10
297.515193
20
319.984661
70
0
0
VERTEX
8
Layer 1
10
312.565085
20
319.984661
70
0
0
VERTEX
8
Layer 1
10
312.565085
20
324.963339
70
0
0
SEQEND
8
Layer 1
0
POLYLINE
8
Layer 1
62
7
70
0
10
0.000000
20
0.000000
66
1
0
VERTEX
8
Layer 1
10
279.872508
20
323.950118
70
0
0
VERTEX
8
Layer 1
10
269.582543
20
323.630991
70
0
0
VERTEX
8
Layer 1
10
268.899299
20
323.609772
70
0
0
VERTEX
8
Layer 1
10
258.918624
20
323.300473
70
0
0
VERTEX
8
Layer 1
10
258.683289
20
322.905320
70
0
0
VERTEX
8
Layer 1
10
258.450026
20
323.285991
70
0
0
VERTEX
8
Layer 1
10
248.145579
20
322.966873
70
0
0
VERTEX
8
Layer 1
10
247.514571
20
322.947256
70
0
0
VERTEX
8
Layer 1
10
237.213747
20
322.628139
70
0
0
VERTEX
8
Layer 1
10
237.213747
20
306.256768
70
0
0
VERTEX
8
Layer 1
10
248.145579
20
306.256768
70
0
0
VERTEX
8
Layer 1
10
248.145579
20
321.928861
70
0
0
VERTEX
8
Layer 1
10
255.873787
20
309.459873
70
0
0
VERTEX
8
Layer 1
10
261.161783
20
309.459873
70
0
0
VERTEX
8
Layer 1
10
268.905505
20
322.491590
70
0
0
VERTEX
8
Layer 1
10
268.991379
20
306.256768
70
0
0
VERTEX
8
Layer 1
10
279.923212
20
306.256768
70
0
0
VERTEX
8
Layer 1
10
279.872508
20
323.950118
70
0
0
SEQEND
8
Layer 1
0
POLYLINE
8
Layer 1
62
7
70
0
10
0.000000
20
0.000000
66
1
0
VERTEX
8
Layer 1
10
229.841378
20
322.399510
70
0
0
VERTEX
8
Layer 1
10
214.791486
20
321.932985
70
0
0
VERTEX
8
Layer 1
10
213.977909
20
321.907663
70
0
0
VERTEX
8
Layer 1
10
202.995903
20
321.567327
70
0
0
VERTEX
8
Layer 1
10
202.995903
20
306.256768
70
0
0
VERTEX
8
Layer 1
10
232.587265
20
306.256768
70
0
0
VERTEX
8
Layer 1
10
232.587265
20
315.306975
70
0
0
VERTEX
8
Layer 1
10
214.791486
20
315.306975
70
0
0
VERTEX
8
Layer 1
10
214.791486
20
319.984661
70
0
0
VERTEX
8
Layer 1
10
229.841378
20
319.984661
70
0
0
VERTEX
8
Layer 1
10
229.841378
20
322.399510
70
0
0
SEQEND
8
Layer 1
0
POLYLINE
8
Layer 1
62
7
70
0
10
0.000000
20
0.000000
66
1
0
VERTEX
8
Layer 1
10
196.527110
20
321.367153
70
0
0
VERTEX
8
Layer 1
10
177.116077
20
320.765630
70
0
0
VERTEX
8
Layer 1
10
175.258763
20
320.707680
70
0
0
VERTEX
8
Layer 1
10
165.116707
20
320.393737
70
0
0
VERTEX
8
Layer 1
10
165.116707
20
306.256728
70
0
0
VERTEX
8
Layer 1
10
177.116077
20
306.256728
70
0
0
VERTEX
8
Layer 1
10
177.116077
20
315.205557
70
0
0
VERTEX
8
Layer 1
10
180.384348
20
315.205557
70
0
0
VERTEX
8
Layer 1
10
186.420755
20
306.256728
70
0
0
VERTEX
8
Layer 1
10
199.233172
20
306.256728
70
0
0
VERTEX
8
Layer 1
10
191.758915
20
317.210280
70
0
0
VERTEX
8
Layer 1
10
193.179889
20
318.038999
70
0
0
VERTEX
8
Layer 1
10
194.441735
20
318.997959
70
0
0
VERTEX
8
Layer 1
10
195.544394
20
320.087164
70
0
0
VERTEX
8
Layer 1
10
196.487806
20
321.306620
70
0
0
VERTEX
8
Layer 1
10
196.527140
20
321.367173
70
0
0
VERTEX
8
Layer 1
10
196.527110
20
321.367153
70
0
0
SEQEND
8
Layer 1
0
POLYLINE
8
Layer 1
62
7
70
0
10
0.000000
20
0.000000
66
1
0
VERTEX
8
Layer 1
10
139.593241
20
319.602419
70
0
0
VERTEX
8
Layer 1
10
139.593241
20
306.256748
70
0
0
VERTEX
8
Layer 1
10
151.592081
20
306.256748
70
0
0
VERTEX
8
Layer 1
10
151.592081
20
319.974292
70
0
0
VERTEX
8
Layer 1
10
139.593241
20
319.602419
70
0
0
SEQEND
8
Layer 1
0
POLYLINE
8
Layer 1
62
7
70
0
10
0.000000
20
0.000000
66
1
0
VERTEX
8
Layer 1
10
484.626639
20
330.295814
70
0
0
VERTEX
8
Layer 1
10
484.924754
20
327.889374
70
0
0
VERTEX
8
Layer 1
10
485.689513
20
325.882948
70
0
0
VERTEX
8
Layer 1
10
486.922557
20
324.179469
70
0
0
VERTEX
8
Layer 1
10
488.486084
20
322.831896
70
0
0
VERTEX
8
Layer 1
10
490.341876
20
321.776944
70
0
0
VERTEX
8
Layer 1
10
492.350193
20
320.950791
70
0
0
VERTEX
8
Layer 1
10
496.570141
20
319.781374
70
0
0
VERTEX
8
Layer 1
10
500.383555
20
318.967797
70
0
0
VERTEX
8
Layer 1
10
501.985145
20
318.561161
70
0
0
VERTEX
8
Layer 1
10
503.230820
20
318.052842
70
0
0
VERTEX
8
Layer 1
10
504.031516
20
317.391900
70
0
0
VERTEX
8
Layer 1
10
504.298348
20
316.527576
70
0
0
VERTEX
8
Layer 1
10
504.184139
20
315.955419
70
0
0
VERTEX
8
Layer 1
10
503.841131
20
315.459528
70
0
0
VERTEX
8
Layer 1
10
503.243665
20
315.090897
70
0
0
VERTEX
8
Layer 1
10
502.366559
20
314.798533
70
0
0
VERTEX
8
Layer 1
10
499.671877
20
314.595266
70
0
0
VERTEX
8
Layer 1
10
496.671932
20
314.811311
70
0
0
VERTEX
8
Layer 1
10
493.570303
20
315.459528
70
0
0
VERTEX
8
Layer 1
10
490.608816
20
316.514731
70
0
0
VERTEX
8
Layer 1
10
487.926978
20
317.849575
70
0
0
VERTEX
8
Layer 1
10
484.062358
20
309.104003
70
0
0
VERTEX
8
Layer 1
10
487.125709
20
307.629735
70
0
0
VERTEX
8
Layer 1
10
490.926305
20
306.460525
70
0
0
VERTEX
8
Layer 1
10
495.171875
20
305.697629
70
0
0
VERTEX
8
Layer 1
10
499.569978
20
305.443171
70
0
0
VERTEX
8
Layer 1
10
502.223410
20
305.544880
70
0
0
VERTEX
8
Layer 1
10
504.641683
20
305.849992
70
0
0
VERTEX
8
Layer 1
10
506.824802
20
306.358482
70
0
0
VERTEX
8
Layer 1
10
508.772768
20
307.070325
70
0
0
VERTEX
8
Layer 1
10
510.488773
20
307.972798
70
0
0
VERTEX
8
Layer 1
10
511.975997
20
309.002366
70
0
0
VERTEX
8
Layer 1
10
513.234422
20
310.159044
70
0
0
VERTEX
8
Layer 1
10
514.264031
20
311.442846
70
0
0
VERTEX
8
Layer 1
10
515.087048
20
312.847428
70
0
0
VERTEX
8
Layer 1
10
515.674890
20
314.315577
70
0
0
VERTEX
8
Layer 1
10
516.027578
20
315.847282
70
0
0
VERTEX
8
Layer 1
10
516.145136
20
317.442531
70
0
0
VERTEX
8
Layer 1
10
515.878304
20
320.010173
70
0
0
VERTEX
8
Layer 1
10
515.544708
20
321.122396
70
0
0
VERTEX
8
Layer 1
10
515.077608
20
322.120218
70
0
0
VERTEX
8
Layer 1
10
513.831929
20
323.823432
70
0
0
VERTEX
8
Layer 1
10
512.230343
20
325.170739
70
0
0
VERTEX
8
Layer 1
10
510.412611
20
326.225951
70
0
0
VERTEX
8
Layer 1
10
508.416928
20
327.052365
70
0
0
VERTEX
8
Layer 1
10
506.319663
20
327.687737
70
0
0
VERTEX
8
Layer 1
10
504.196980
20
328.170577
70
0
0
VERTEX
8
Layer 1
10
500.332871
20
328.933470
70
0
0
VERTEX
8
Layer 1
10
498.769341
20
329.327471
70
0
0
VERTEX
8
Layer 1
10
497.536301
20
329.797731
70
0
0
VERTEX
8
Layer 1
10
496.958831
20
330.195217
70
0
0
VERTEX
8
Layer 1
10
496.603239
20
330.666656
70
0
0
VERTEX
8
Layer 1
10
496.603239
20
330.667177
70
0
0
VERTEX
8
Layer 1
10
484.626639
20
330.295814
70
0
0
SEQEND
8
Layer 1
0
POLYLINE
8
Layer 1
62
7
70
0
10
0.000000
20
0.000000
66
1
0
VERTEX
8
Layer 1
10
463.877563
20
329.652915
70
0
0
VERTEX
8
Layer 1
10
452.081469
20
329.287247
70
0
0
VERTEX
8
Layer 1
10
452.081469
20
306.256748
70
0
0
VERTEX
8
Layer 1
10
481.672831
20
306.256748
70
0
0
VERTEX
8
Layer 1
10
481.672831
20
315.306955
70
0
0
VERTEX
8
Layer 1
10
463.877563
20
315.306955
70
0
0
VERTEX
8
Layer 1
10
463.877563
20
319.984641
70
0
0
VERTEX
8
Layer 1
10
478.927455
20
319.984641
70
0
0
VERTEX
8
Layer 1
10
478.927455
20
328.628315
70
0
0
VERTEX
8
Layer 1
10
463.877563
20
328.628315
70
0
0
VERTEX
8
Layer 1
10
463.877563
20
329.652915
70
0
0
SEQEND
8
Layer 1
0
POLYLINE
8
Layer 1
62
7
70
0
10
0.000000
20
0.000000
66
1
0
VERTEX
8
Layer 1
10
411.914634
20
328.042315
70
0
0
VERTEX
8
Layer 1
10
411.914634
20
322.272790
70
0
0
VERTEX
8
Layer 1
10
411.986126
20
320.332769
70
0
0
VERTEX
8
Layer 1
10
412.200605
20
318.503977
70
0
0
VERTEX
8
Layer 1
10
412.558074
20
316.786411
70
0
0
VERTEX
8
Layer 1
10
413.058539
20
315.180069
70
0
0
VERTEX
8
Layer 1
10
413.702003
20
313.684948
70
0
0
VERTEX
8
Layer 1
10
414.488470
20
312.301048
70
0
0
VERTEX
8
Layer 1
10
415.417945
20
311.028364
70
0
0
VERTEX
8
Layer 1
10
416.490432
20
309.866896
70
0
0
VERTEX
8
Layer 1
10
417.690847
20
308.830139
70
0
0
VERTEX
8
Layer 1
10
419.004097
20
307.931595
70
0
0
VERTEX
8
Layer 1
10
420.430175
20
307.171271
70
0
0
VERTEX
8
Layer 1
10
421.969072
20
306.549172
70
0
0
VERTEX
8
Layer 1
10
423.620779
20
306.065307
70
0
0
VERTEX
8
Layer 1
10
425.385290
20
305.719680
70
0
0
VERTEX
8
Layer 1
10
429.252685
20
305.443171
70
0
0
VERTEX
8
Layer 1
10
433.119996
20
305.719680
70
0
0
VERTEX
8
Layer 1
10
434.884422
20
306.065307
70
0
0
VERTEX
8
Layer 1
10
436.536035
20
306.549172
70
0
0
VERTEX
8
Layer 1
10
438.074838
20
307.171271
70
0
0
VERTEX
8
Layer 1
10
439.500833
20
307.931595
70
0
0
VERTEX
8
Layer 1
10
440.814026
20
308.830139
70
0
0
VERTEX
8
Layer 1
10
442.014418
20
309.866896
70
0
0
VERTEX
8
Layer 1
10
443.086905
20
311.028364
70
0
0
VERTEX
8
Layer 1
10
444.016379
20
312.301048
70
0
0
VERTEX
8
Layer 1
10
444.802845
20
313.684948
70
0
0
VERTEX
8
Layer 1
10
445.446307
20
315.180069
70
0
0
VERTEX
8
Layer 1
10
445.946769
20
316.786411
70
0
0
VERTEX
8
Layer 1
10
446.304237
20
318.503977
70
0
0
VERTEX
8
Layer 1
10
446.518714
20
320.332769
70
0
0
VERTEX
8
Layer 1
10
446.590206
20
322.272790
70
0
0
VERTEX
8
Layer 1
10
446.590206
20
329.117079
70
0
0
VERTEX
8
Layer 1
10
434.794633
20
328.751412
70
0
0
VERTEX
8
Layer 1
10
434.794633
20
322.628629
70
0
0
VERTEX
8
Layer 1
10
434.702461
20
320.741094
70
0
0
VERTEX
8
Layer 1
10
434.425961
20
319.145975
70
0
0
VERTEX
8
Layer 1
10
433.965151
20
317.843208
70
0
0
VERTEX
8
Layer 1
10
433.320051
20
316.832731
70
0
0
VERTEX
8
Layer 1
10
432.538297
20
316.098671
70
0
0
VERTEX
8
Layer 1
10
431.616697
20
315.574348
70
0
0
VERTEX
8
Layer 1
10
430.555273
20
315.259756
70
0
0
VERTEX
8
Layer 1
10
429.354054
20
315.154893
70
0
0
VERTEX
8
Layer 1
10
428.171986
20
315.259756
70
0
0
VERTEX
8
Layer 1
10
427.117095
20
315.574348
70
0
0
VERTEX
8
Layer 1
10
426.189314
20
316.098671
70
0
0
VERTEX
8
Layer 1
10
425.388577
20
316.832731
70
0
0
VERTEX
8
Layer 1
10
424.743477
20
317.843208
70
0
0
VERTEX
8
Layer 1
10
424.282666
20
319.145975
70
0
0
VERTEX
8
Layer 1
10
424.006166
20
320.741094
70
0
0
VERTEX
8
Layer 1
10
423.913995
20
322.628629
70
0
0
VERTEX
8
Layer 1
10
423.913995
20
328.414189
70
0
0
VERTEX
8
Layer 1
10
411.914634
20
328.042315
70
0
0
SEQEND
8
Layer 1
0
POLYLINE
8
Layer 1
62
7
70
0
10
0.000000
20
0.000000
66
1
0
VERTEX
8
Layer 1
10
407.473324
20
327.904736
70
0
0
VERTEX
8
Layer 1
10
395.221554
20
327.525096
70
0
0
VERTEX
8
Layer 1
10
395.614928
20
325.887169
70
0
0
VERTEX
8
Layer 1
10
395.746010
20
324.052527
70
0
0
VERTEX
8
Layer 1
10
395.593647
20
322.069471
70
0
0
VERTEX
8
Layer 1
10
395.136220
20
320.289796
70
0
0
VERTEX
8
Layer 1
10
394.398805
20
318.777107
70
0
0
VERTEX
8
Layer 1
10
393.407167
20
317.493216
70
0
0
VERTEX
8
Layer 1
10
392.237804
20
316.501846
70
0
0
VERTEX
8
Layer 1
10
390.865067
20
315.764693
70
0
0
VERTEX
8
Layer 1
10
389.378013
20
315.307260
70
0
0
VERTEX
8
Layer 1
10
387.763851
20
315.154893
70
0
0
VERTEX
8
Layer 1
10
386.136796
20
315.307260
70
0
0
VERTEX
8
Layer 1
10
384.611431
20
315.764693
70
0
0
VERTEX
8
Layer 1
10
383.264110
20
316.501846
70
0
0
VERTEX
8
Layer 1
10
382.069322
20
317.493216
70
0
0
VERTEX
8
Layer 1
10
381.116003
20
318.777107
70
0
0
VERTEX
8
Layer 1
10
380.391483
20
320.289796
70
0
0
VERTEX
8
Layer 1
10
379.933795
20
322.069471
70
0
0
VERTEX
8
Layer 1
10
379.781173
20
324.052527
70
0
0
VERTEX
8
Layer 1
10
379.876219
20
325.626559
70
0
0
VERTEX
8
Layer 1
10
380.161323
20
327.058050
70
0
0
VERTEX
8
Layer 1
10
367.842835
20
326.676348
70
0
0
VERTEX
8
Layer 1
10
367.680434
20
324.052527
70
0
0
VERTEX
8
Layer 1
10
367.772524
20
322.082264
70
0
0
VERTEX
8
Layer 1
10
368.048846
20
320.188208
70
0
0
VERTEX
8
Layer 1
10
368.509477
20
318.370419
70
0
0
VERTEX
8
Layer 1
10
369.154495
20
316.628954
70
0
0
VERTEX
8
Layer 1
10
369.990309
20
314.979741
70
0
0
VERTEX
8
Layer 1
10
370.972373
20
313.438627
70
0
0
VERTEX
8
Layer 1
10
372.100616
20
312.005557
70
0
0
VERTEX
8
Layer 1
10
373.374964
20
310.680474
70
0
0
VERTEX
8
Layer 1
10
374.782711
20
309.504714
70
0
0
VERTEX
8
Layer 1
10
376.311215
20
308.468784
70
0
0
VERTEX
8
Layer 1
10
377.960475
20
307.572674
70
0
0
VERTEX
8
Layer 1
10
379.730489
20
306.816375
70
0
0
VERTEX
8
Layer 1
10
382.832735
20
305.930385
70
0
0
VERTEX
8
Layer 1
10
381.560900
20
307.273592
70
0
0
VERTEX
8
Layer 1
10
393.966793
20
310.324634
70
0
0
VERTEX
8
Layer 1
10
396.051165
20
307.426165
70
0
0
VERTEX
8
Layer 1
10
396.390460
20
307.048597
70
0
0
VERTEX
8
Layer 1
10
397.983676
20
307.779781
70
0
0
VERTEX
8
Layer 1
10
399.475154
20
308.628845
70
0
0
VERTEX
8
Layer 1
10
400.864855
20
309.595755
70
0
0
VERTEX
8
Layer 1
10
402.152739
20
310.680474
70
0
0
VERTEX
8
Layer 1
10
403.423853
20
312.005557
70
0
0
VERTEX
8
Layer 1
10
404.542440
20
313.438627
70
0
0
VERTEX
8
Layer 1
10
405.508492
20
314.979741
70
0
0
VERTEX
8
Layer 1
10
406.322003
20
316.628954
70
0
0
VERTEX
8
Layer 1
10
406.989324
20
318.370419
70
0
0
VERTEX
8
Layer 1
10
407.465967
20
320.188208
70
0
0
VERTEX
8
Layer 1
10
407.751945
20
322.082264
70
0
0
VERTEX
8
Layer 1
10
407.847269
20
324.052527
70
0
0
VERTEX
8
Layer 1
10
407.753715
20
326.022229
70
0
0
VERTEX
8
Layer 1
10
407.473324
20
327.904736
70
0
0
VERTEX
8
Layer 1
10
407.473324
20
327.904736
70
0
0
SEQEND
8
Layer 1
0
POLYLINE
8
Layer 1
62
7
70
0
10
0.000000
20
0.000000
66
1
0
VERTEX
8
Layer 1
10
396.390460
20
307.048597
70
0
0
VERTEX
8
Layer 1
10
395.797214
20
306.816375
70
0
0
VERTEX
8
Layer 1
10
393.922337
20
306.215714
70
0
0
VERTEX
8
Layer 1
10
391.958486
20
305.786575
70
0
0
VERTEX
8
Layer 1
10
389.905659
20
305.529035
70
0
0
VERTEX
8
Layer 1
10
387.763851
20
305.443171
70
0
0
VERTEX
8
Layer 1
10
385.244198
20
305.565063
70
0
0
VERTEX
8
Layer 1
10
382.832735
20
305.930385
70
0
0
VERTEX
8
Layer 1
10
386.441852
20
302.443844
70
0
0
VERTEX
8
Layer 1
10
388.577330
20
300.676889
70
0
0
VERTEX
8
Layer 1
10
390.611116
20
299.342108
70
0
0
VERTEX
8
Layer 1
10
392.670319
20
298.388892
70
0
0
VERTEX
8
Layer 1
10
394.780371
20
297.766158
70
0
0
VERTEX
8
Layer 1
10
397.004633
20
297.384839
70
0
0
VERTEX
8
Layer 1
10
399.406852
20
297.257736
70
0
0
VERTEX
8
Layer 1
10
402.514702
20
297.540553
70
0
0
VERTEX
8
Layer 1
10
403.939927
20
297.894075
70
0
0
VERTEX
8
Layer 1
10
405.279352
20
298.389007
70
0
0
VERTEX
8
Layer 1
10
406.532977
20
299.025350
70
0
0
VERTEX
8
Layer 1
10
407.700803
20
299.803104
70
0
0
VERTEX
8
Layer 1
10
408.782830
20
300.722270
70
0
0
VERTEX
8
Layer 1
10
409.779058
20
301.782849
70
0
0
VERTEX
8
Layer 1
10
404.592960
20
307.883903
70
0
0
VERTEX
8
Layer 1
10
403.426761
20
306.882881
70
0
0
VERTEX
8
Layer 1
10
402.216120
20
306.167826
70
0
0
VERTEX
8
Layer 1
10
400.960990
20
305.738770
70
0
0
VERTEX
8
Layer 1
10
399.661323
20
305.595744
70
0
0
VERTEX
8
Layer 1
10
398.644323
20
305.697580
70
0
0
VERTEX
8
Layer 1
10
397.729014
20
306.002798
70
0
0
VERTEX
8
Layer 1
10
396.390460
20
307.048597
70
0
0
VERTEX
8
Layer 1
10
396.390460
20
307.048597
70
0
0
SEQEND
8
Layer 1
0
POLYLINE
8
Camada 1
62
7
70
0
10
0.000000
20
0.000000
66
1
0
VERTEX
8
Camada 1
10
275.832737
20
370.671820
70
0
0
VERTEX
8
Camada 1
10
266.602491
20
353.648670
70
0
0
VERTEX
8
Camada 1
10
273.841453
20
353.648670
70
0
0
VERTEX
8
Camada 1
10
275.256041
20
356.615420
70
0
0
VERTEX
8
Camada 1
10
283.286344
20
356.615420
70
0
0
VERTEX
8
Camada 1
10
284.700931
20
353.648670
70
0
0
VERTEX
8
Camada 1
10
292.060921
20
353.648670
70
0
0
VERTEX
8
Camada 1
10
282.830676
20
370.671820
70
0
0
VERTEX
8
Camada 1
10
275.832737
20
370.671820
70
0
0
SEQEND
8
Camada 1
0
POLYLINE
8
Camada 1
62
7
70
0
10
0.000000
20
0.000000
66
1
0
VERTEX
8
Camada 1
10
293.207073
20
370.671820
70
0
0
VERTEX
8
Camada 1
10
293.207073
20
353.648670
70
0
0
VERTEX
8
Camada 1
10
300.326041
20
353.648670
70
0
0
VERTEX
8
Camada 1
10
300.326041
20
357.928640
70
0
0
VERTEX
8
Camada 1
10
302.264569
20
357.928640
70
0
0
VERTEX
8
Camada 1
10
305.845776
20
353.648670
70
0
0
VERTEX
8
Camada 1
10
313.447307
20
353.648670
70
0
0
VERTEX
8
Camada 1
10
309.013210
20
358.887560
70
0
0
VERTEX
8
Camada 1
10
310.604782
20
359.742575
70
0
0
VERTEX
8
Camada 1
10
311.818592
20
360.846770
70
0
0
VERTEX
8
Camada 1
10
312.333230
20
361.597649
70
0
0
VERTEX
8
Camada 1
10
312.700769
20
362.415439
70
0
0
VERTEX
8
Camada 1
10
312.921258
20
363.300104
70
0
0
VERTEX
8
Camada 1
10
312.994743
20
364.251610
70
0
0
VERTEX
8
Camada 1
10
312.836373
20
365.657496
70
0
0
VERTEX
8
Camada 1
10
312.361270
20
366.908285
70
0
0
VERTEX
8
Camada 1
10
311.569442
20
368.004042
70
0
0
VERTEX
8
Camada 1
10
310.460899
20
368.944830
70
0
0
VERTEX
8
Camada 1
10
309.048876
20
369.700293
70
0
0
VERTEX
8
Camada 1
10
307.346566
20
370.239987
70
0
0
VERTEX
8
Camada 1
10
305.353925
20
370.563851
70
0
0
VERTEX
8
Camada 1
10
303.070909
20
370.671820
70
0
0
VERTEX
8
Camada 1
10
293.207073
20
370.671820
70
0
0
SEQEND
8
Camada 1
0
POLYLINE
8
Camada 1
62
7
70
0
10
0.000000
20
0.000000
66
1
0
VERTEX
8
Camada 1
10
315.679613
20
370.671820
70
0
0
VERTEX
8
Camada 1
10
315.679613
20
353.648670
70
0
0
VERTEX
8
Camada 1
10
333.234970
20
353.648670
70
0
0
VERTEX
8
Camada 1
10
333.234970
20
357.977250
70
0
0
VERTEX
8
Camada 1
10
322.677550
20
357.977250
70
0
0
VERTEX
8
Camada 1
10
322.677550
20
360.214740
70
0
0
VERTEX
8
Camada 1
10
331.606260
20
360.214740
70
0
0
VERTEX
8
Camada 1
10
331.606260
20
364.348840
70
0
0
VERTEX
8
Camada 1
10
322.677550
20
364.348840
70
0
0
VERTEX
8
Camada 1
10
322.677550
20
366.342720
70
0
0
VERTEX
8
Camada 1
10
332.842920
20
366.342720
70
0
0
VERTEX
8
Camada 1
10
332.842920
20
370.671820
70
0
0
VERTEX
8
Camada 1
10
315.679613
20
370.671820
70
0
0
SEQEND
8
Camada 1
0
POLYLINE
8
Camada 1
62
7
70
0
10
0.000000
20
0.000000
66
1
0
VERTEX
8
Camada 1
10
335.979840
20
370.671820
70
0
0
VERTEX
8
Camada 1
10
335.979840
20
353.648670
70
0
0
VERTEX
8
Camada 1
10
342.917790
20
353.648670
70
0
0
VERTEX
8
Camada 1
10
342.917790
20
361.389340
70
0
0
VERTEX
8
Camada 1
10
350.941360
20
353.648670
70
0
0
VERTEX
8
Camada 1
10
356.793150
20
353.648670
70
0
0
VERTEX
8
Camada 1
10
356.793150
20
370.671820
70
0
0
VERTEX
8
Camada 1
10
349.855210
20
370.671820
70
0
0
VERTEX
8
Camada 1
10
349.855210
20
362.931150
70
0
0
VERTEX
8
Camada 1
10
341.831630
20
370.671820
70
0
0
VERTEX
8
Camada 1
10
335.979840
20
370.671820
70
0
0
SEQEND
8
Camada 1
0
POLYLINE
8
Camada 1
62
7
70
0
10
0.000000
20
0.000000
66
1
0
VERTEX
8
Camada 1
10
367.169550
20
370.671820
70
0
0
VERTEX
8
Camada 1
10
357.939300
20
353.648670
70
0
0
VERTEX
8
Camada 1
10
365.178780
20
353.648670
70
0
0
VERTEX
8
Camada 1
10
366.592860
20
356.615420
70
0
0
VERTEX
8
Camada 1
10
374.623680
20
356.615420
70
0
0
VERTEX
8
Camada 1
10
376.037750
20
353.648670
70
0
0
VERTEX
8
Camada 1
10
383.397740
20
353.648670
70
0
0
VERTEX
8
Camada 1
10
374.168010
20
370.671820
70
0
0
VERTEX
8
Camada 1
10
367.169550
20
370.671820
70
0
0
SEQEND
8
Camada 1
0
POLYLINE
8
Camada 1
62
7
70
0
10
0.000000
20
0.000000
66
1
0
VERTEX
8
Camada 1
10
300.326041
20
366.245480
70
0
0
VERTEX
8
Camada 1
10
302.919882
20
366.245480
70
0
0
VERTEX
8
Camada 1
10
304.201845
20
366.111834
70
0
0
VERTEX
8
Camada 1
10
305.091675
20
365.710670
70
0
0
VERTEX
8
Camada 1
10
305.634712
20
365.078419
70
0
0
VERTEX
8
Camada 1
10
305.815778
20
364.251610
70
0
0
VERTEX
8
Camada 1
10
305.634712
20
363.424804
70
0
0
VERTEX
8
Camada 1
10
305.091675
20
362.792540
70
0
0
VERTEX
8
Camada 1
10
304.201845
20
362.391125
70
0
0
VERTEX
8
Camada 1
10
302.919882
20
362.257220
70
0
0
VERTEX
8
Camada 1
10
300.326041
20
362.257220
70
0
0
VERTEX
8
Camada 1
10
300.326041
20
366.245480
70
0
0
SEQEND
8
Camada 1
0
POLYLINE
8
Camada 1
62
7
70
0
10
0.000000
20
0.000000
66
1
0
VERTEX
8
Camada 1
10
370.608520
20
365.037780
70
0
0
VERTEX
8
Camada 1
10
372.652570
20
360.749540
70
0
0
VERTEX
8
Camada 1
10
368.563970
20
360.749540
70
0
0
VERTEX
8
Camada 1
10
370.608520
20
365.037780
70
0
0
SEQEND
8
Camada 1
0
POLYLINE
8
Camada 1
62
7
70
0
10
0.000000
20
0.000000
66
1
0
VERTEX
8
Camada 1
10
279.271192
20
365.037260
70
0
0
VERTEX
8
Camada 1
10
281.315749
20
360.749540
70
0
0
VERTEX
8
Camada 1
10
277.226635
20
360.749540
70
0
0
VERTEX
8
Camada 1
10
279.271192
20
365.037260
70
0
0
SEQEND
8
Camada 1
0
POLYLINE
8
Camada 1
62
7
70
0
10
0.000000
20
0.000000
66
1
0
VERTEX
8
Camada 1
10
554.708317
20
94.721680
70
0
0
VERTEX
8
Camada 1
10
325.001267
20
-0.426097
70
0
0
VERTEX
8
Camada 1
10
95.294216
20
94.721680
70
0
0
VERTEX
8
Camada 1
10
0.146439
20
324.428731
70
0
0
VERTEX
8
Camada 1
10
95.294216
20
554.135782
70
0
0
VERTEX
8
Camada 1
10
325.001267
20
649.283559
70
0
0
VERTEX
8
Camada 1
10
554.708316
20
554.135782
70
0
0
VERTEX
8
Camada 1
10
649.856095
20
324.428731
70
0
0
VERTEX
8
Camada 1
10
554.708317
20
94.721680
70
0
0
SEQEND
8
Camada 1
0
POLYLINE
8
Camada 1
62
7
70
0
10
0.000000
20
0.000000
66
1
0
VERTEX
8
Camada 1
10
324.999710
20
625.094360
70
0
0
VERTEX
8
Camada 1
10
112.399410
20
537.032721
70
0
0
VERTEX
8
Camada 1
10
24.337770
20
324.432430
70
0
0
VERTEX
8
Camada 1
10
112.399410
20
111.832120
70
0
0
VERTEX
8
Camada 1
10
324.999710
20
23.770490
70
0
0
VERTEX
8
Camada 1
10
537.600010
20
111.832120
70
0
0
VERTEX
8
Camada 1
10
625.661640
20
324.432430
70
0
0
VERTEX
8
Camada 1
10
537.600010
20
537.032721
70
0
0
VERTEX
8
Camada 1
10
324.999710
20
625.094360
70
0
0
SEQEND
8
Camada 1
0
POLYLINE
8
Camada 1
62
7
70
0
10
0.000000
20
0.000000
66
1
0
VERTEX
8
Camada 1
10
324.999710
20
621.815900
70
0
0
VERTEX
8
Camada 1
10
535.282410
20
534.713328
70
0
0
VERTEX
8
Camada 1
10
622.383180
20
324.432430
70
0
0
VERTEX
8
Camada 1
10
535.280610
20
114.147930
70
0
0
VERTEX
8
Camada 1
10
324.999710
20
27.048960
70
0
0
VERTEX
8
Camada 1
10
114.718810
20
114.149730
70
0
0
VERTEX
8
Camada 1
10
27.616240
20
324.432430
70
0
0
VERTEX
8
Camada 1
10
114.718810
20
534.713328
70
0
0
VERTEX
8
Camada 1
10
324.999710
20
621.815900
70
0
0
SEQEND
8
Camada 1
0
POLYLINE
8
Camada 1
62
7
70
0
10
0.000000
20
0.000000
66
1
0
VERTEX
8
Camada 1
10
153.368199
20
512.426812
70
0
0
VERTEX
8
Camada 1
10
166.446039
20
465.170648
70
0
0
VERTEX
8
Camada 1
10
171.503194
20
475.185263
70
0
0
VERTEX
8
Camada 1
10
193.874316
20
459.368705
70
0
0
VERTEX
8
Camada 1
10
180.796475
20
506.626821
70
0
0
VERTEX
8
Camada 1
10
175.739320
20
496.612206
70
0
0
VERTEX
8
Camada 1
10
153.368199
20
512.426812
70
0
0
SEQEND
8
Camada 1
0
POLYLINE
8
Camada 1
62
7
70
0
10
0.000000
20
0.000000
66
1
0
VERTEX
8
Camada 1
10
156.622998
20
507.797765
70
0
0
VERTEX
8
Camada 1
10
176.443060
20
493.785514
70
0
0
VERTEX
8
Camada 1
10
180.276490
20
501.376131
70
0
0
VERTEX
8
Camada 1
10
190.619516
20
463.999704
70
0
0
VERTEX
8
Camada 1
10
170.799454
20
478.011954
70
0
0
VERTEX
8
Camada 1
10
166.964070
20
470.419376
70
0
0
VERTEX
8
Camada 1
10
156.622998
20
507.797765
70
0
0
SEQEND
8
Camada 1
0
POLYLINE
8
Camada 1
62
7
70
0
10
0.000000
20
0.000000
66
1
0
VERTEX
8
Camada 1
10
496.633150
20
513.804967
70
0
0
VERTEX
8
Camada 1
10
474.262030
20
497.990361
70
0
0
VERTEX
8
Camada 1
10
469.202920
20
508.004976
70
0
0
VERTEX
8
Camada 1
10
456.125070
20
460.748812
70
0
0
VERTEX
8
Camada 1
10
478.498150
20
476.565380
70
0
0
VERTEX
8
Camada 1
10
483.555300
20
466.548812
70
0
0
VERTEX
8
Camada 1
10
496.633150
20
513.804967
70
0
0
SEQEND
8
Camada 1
0
POLYLINE
8
Camada 1
62
7
70
0
10
0.000000
20
0.000000
66
1
0
VERTEX
8
Camada 1
10
493.378340
20
509.175920
70
0
0
VERTEX
8
Camada 1
10
483.035320
20
471.799493
70
0
0
VERTEX
8
Camada 1
10
479.201890
20
479.390109
70
0
0
VERTEX
8
Camada 1
10
459.377920
20
465.375907
70
0
0
VERTEX
8
Camada 1
10
469.722900
20
502.756247
70
0
0
VERTEX
8
Camada 1
10
473.558280
20
495.163669
70
0
0
VERTEX
8
Camada 1
10
493.378340
20
509.175920
70
0
0
SEQEND
8
Camada 1
 0 
ENDSEC
 0 
EOF